<?xml version="1.0" encoding="utf-8"?>
<!-- Generator: Adobe Illustrator 24.2.3, SVG Export Plug-In . SVG Version: 6.00 Build 0)  -->
<svg version="1.1" id="Layer_1" xmlns="http://www.w3.org/2000/svg" xmlns:xlink="http://www.w3.org/1999/xlink" x="0px" y="0px"
	 viewBox="0 0 124.4 59" style="enable-background:new 0 0 124.4 59;" xml:space="preserve">
<style type="text/css">
	.st0{clip-path:url(#SVGID_2_);fill-rule:evenodd;clip-rule:evenodd;fill:#8CC9E8;}
	.st1{clip-path:url(#SVGID_4_);fill-rule:evenodd;clip-rule:evenodd;fill:#8CC9E8;}
	.st2{clip-path:url(#SVGID_6_);fill-rule:evenodd;clip-rule:evenodd;fill:#8CC9E8;}
	.st3{clip-path:url(#SVGID_8_);fill-rule:evenodd;clip-rule:evenodd;fill:#8CC9E8;}
	.st4{clip-path:url(#SVGID_10_);fill-rule:evenodd;clip-rule:evenodd;fill:#8CC9E8;}
	.st5{clip-path:url(#SVGID_12_);fill-rule:evenodd;clip-rule:evenodd;fill:#8CC9E8;}
	.st6{clip-path:url(#SVGID_14_);fill-rule:evenodd;clip-rule:evenodd;fill:#8CC9E8;}
	.st7{clip-path:url(#SVGID_16_);fill-rule:evenodd;clip-rule:evenodd;fill:#8CC9E8;}
	.st8{clip-path:url(#SVGID_18_);fill-rule:evenodd;clip-rule:evenodd;fill:#8CC9E8;}
	.st9{clip-path:url(#SVGID_20_);fill-rule:evenodd;clip-rule:evenodd;fill:#8CC9E8;}
	.st10{clip-path:url(#SVGID_22_);}
	.st11{clip-path:url(#SVGID_24_);fill-rule:evenodd;clip-rule:evenodd;fill:#8CC9E8;}
	.st12{clip-path:url(#SVGID_26_);fill-rule:evenodd;clip-rule:evenodd;fill:#8CC9E8;}
	.st13{clip-path:url(#SVGID_28_);fill-rule:evenodd;clip-rule:evenodd;fill:#8CC9E8;}
	.st14{clip-path:url(#SVGID_30_);fill-rule:evenodd;clip-rule:evenodd;fill:#8CC9E8;}
	.st15{clip-path:url(#SVGID_32_);fill-rule:evenodd;clip-rule:evenodd;fill:#8CC9E8;}
	.st16{clip-path:url(#SVGID_34_);fill-rule:evenodd;clip-rule:evenodd;fill:#8CC9E8;}
	.st17{clip-path:url(#SVGID_36_);fill-rule:evenodd;clip-rule:evenodd;fill:#8CC9E8;}
	.st18{clip-path:url(#SVGID_38_);fill-rule:evenodd;clip-rule:evenodd;fill:#8CC9E8;}
	.st19{clip-path:url(#SVGID_40_);fill-rule:evenodd;clip-rule:evenodd;fill:#8CC9E8;}
	.st20{clip-path:url(#SVGID_42_);fill-rule:evenodd;clip-rule:evenodd;fill:#8CC9E8;}
	.st21{clip-path:url(#SVGID_44_);fill-rule:evenodd;clip-rule:evenodd;fill:#4E88C6;}
	.st22{clip-path:url(#SVGID_46_);}
	.st23{font-family:'CastleT-Book';}
	.st24{font-size:7.6336px;}
	.st25{clip-path:url(#SVGID_48_);}
	.st26{clip-path:url(#SVGID_50_);fill-rule:evenodd;clip-rule:evenodd;fill:#C9212B;}
	.st27{clip-path:url(#SVGID_52_);fill-rule:evenodd;clip-rule:evenodd;fill:#074C84;}
	.st28{clip-path:url(#SVGID_54_);fill-rule:evenodd;clip-rule:evenodd;fill:#074C84;}
</style>
<g>
	<g>
		<g>
			<defs>
				<rect id="SVGID_1_" x="-16.3" y="0.4" width="157.3" height="58.2"/>
			</defs>
			<clipPath id="SVGID_2_">
				<use xlink:href="#SVGID_1_"  style="overflow:visible;"/>
			</clipPath>
			<polygon class="st0" points="98.5,39.9 94.5,44.7 96.8,39.4 98.1,39 			"/>
		</g>
		<g>
			<defs>
				<rect id="SVGID_3_" x="-16.3" y="0.4" width="157.3" height="58.2"/>
			</defs>
			<clipPath id="SVGID_4_">
				<use xlink:href="#SVGID_3_"  style="overflow:visible;"/>
			</clipPath>
			<polygon class="st1" points="98.4,39.9 104.8,41.3 99.3,38.5 98.1,39 			"/>
		</g>
		<g>
			<defs>
				<rect id="SVGID_5_" x="-16.3" y="0.4" width="157.3" height="58.2"/>
			</defs>
			<clipPath id="SVGID_6_">
				<use xlink:href="#SVGID_5_"  style="overflow:visible;"/>
			</clipPath>
			<polygon class="st2" points="99.3,38.5 101.7,33.2 97.6,38 98,39 			"/>
		</g>
		<g>
			<defs>
				<rect id="SVGID_7_" x="-16.3" y="0.4" width="157.3" height="58.2"/>
			</defs>
			<clipPath id="SVGID_8_">
				<use xlink:href="#SVGID_7_"  style="overflow:visible;"/>
			</clipPath>
			<polygon class="st3" points="97.6,39.9 101.6,44.7 99.3,39.4 98,39 			"/>
		</g>
		<g>
			<defs>
				<rect id="SVGID_9_" x="-16.3" y="0.4" width="157.3" height="58.2"/>
			</defs>
			<clipPath id="SVGID_10_">
				<use xlink:href="#SVGID_9_"  style="overflow:visible;"/>
			</clipPath>
			<polygon class="st4" points="99.3,39.4 104.8,36.6 98.4,38 98,39 			"/>
		</g>
		<g>
			<defs>
				<rect id="SVGID_11_" x="-16.3" y="0.4" width="157.3" height="58.2"/>
			</defs>
			<clipPath id="SVGID_12_">
				<use xlink:href="#SVGID_11_"  style="overflow:visible;"/>
			</clipPath>
			<polygon class="st5" points="97.9,40.3 104.8,44.3 99.7,39 97.9,39 			"/>
		</g>
		<g>
			<defs>
				<rect id="SVGID_13_" x="-16.3" y="0.4" width="157.3" height="58.2"/>
			</defs>
			<clipPath id="SVGID_14_">
				<use xlink:href="#SVGID_13_"  style="overflow:visible;"/>
			</clipPath>
			<polygon class="st6" points="99.7,39 104.8,33.7 98,37.8 97.9,39 			"/>
		</g>
		<g>
			<defs>
				<rect id="SVGID_15_" x="-16.3" y="0.4" width="157.3" height="58.2"/>
			</defs>
			<clipPath id="SVGID_16_">
				<use xlink:href="#SVGID_15_"  style="overflow:visible;"/>
			</clipPath>
			<polygon class="st7" points="99.8,40.6 98.1,52.3 96.3,40.6 98,39 			"/>
		</g>
		<g>
			<defs>
				<rect id="SVGID_17_" x="-16.3" y="0.4" width="157.3" height="58.2"/>
			</defs>
			<clipPath id="SVGID_18_">
				<use xlink:href="#SVGID_17_"  style="overflow:visible;"/>
			</clipPath>
			<polygon class="st8" points="99.8,40.6 112.9,39 99.9,37.4 98,39 			"/>
		</g>
		<g>
			<defs>
				<rect id="SVGID_19_" x="-16.3" y="0.4" width="157.3" height="58.2"/>
			</defs>
			<clipPath id="SVGID_20_">
				<use xlink:href="#SVGID_19_"  style="overflow:visible;"/>
			</clipPath>
			<polygon class="st9" points="99.9,37.4 98.1,20.9 96.3,37.4 98,39 			"/>
		</g>
		<g>
			<defs>
				<rect id="SVGID_21_" x="-16.3" y="0.4" width="157.3" height="58.2"/>
			</defs>
			<clipPath id="SVGID_22_">
				<use xlink:href="#SVGID_21_"  style="overflow:visible;"/>
			</clipPath>
			<g class="st10">
				<g>
					<defs>
						<rect id="SVGID_23_" x="-16.3" y="0.4" width="157.3" height="58.2"/>
					</defs>
					<clipPath id="SVGID_24_">
						<use xlink:href="#SVGID_23_"  style="overflow:visible;"/>
					</clipPath>
					<path class="st11" d="M98.3,38.8c-0.1-0.1-0.4-0.1-0.4,0c-0.1,0.1-0.1,0.4,0,0.4c0.1,0.1,0.4,0.1,0.5,0
						C98.4,39,98.4,38.9,98.3,38.8"/>
				</g>
				<g>
					<defs>
						<rect id="SVGID_25_" x="-16.3" y="0.4" width="157.3" height="58.2"/>
					</defs>
					<clipPath id="SVGID_26_">
						<use xlink:href="#SVGID_25_"  style="overflow:visible;"/>
					</clipPath>
					<path class="st12" d="M99.2,54.2L99.2,54.2l0.4-1h-0.1v0.3c-0.3-0.1-0.5-0.3-1-0.3c-0.6,0-1.1,0.5-1.1,1c0,0.4,0.4,0.8,0.6,1
						c0.6,0.5,0.8,0.6,0.8,1.1c0,0.4-0.3,0.9-1.1,0.9c-0.8,0-1.1-0.5-1.1-0.9c0-0.4,0.3-0.6,0.6-0.6c0.1,0,0.1,0,0.3,0.1h-0.1
						c-0.1,0-0.3,0.1-0.3,0.3c0,0.1,0.1,0.4,0.4,0.4c0.1,0,0.4-0.1,0.4-0.4s-0.3-0.4-0.5-0.4c-0.4,0-0.8,0.4-0.8,0.8
						c0,0.5,0.4,1,1.3,1c1,0,1.5-0.6,1.5-1.1s-0.4-0.8-0.6-1c-0.6-0.5-0.9-0.8-0.9-1.1c0-0.3,0.1-0.6,0.8-0.6
						C98.9,53.6,99.2,53.8,99.2,54.2c0,0.1,0,0.1,0,0.3V54.2z"/>
				</g>
				<g>
					<defs>
						<rect id="SVGID_27_" x="-16.3" y="0.4" width="157.3" height="58.2"/>
					</defs>
					<clipPath id="SVGID_28_">
						<use xlink:href="#SVGID_27_"  style="overflow:visible;"/>
					</clipPath>
					<path class="st13" d="M75.3,39.2c0.1-4.8,1-9.1,4-12.9c0.4,0.3,0.9,0.5,1.3,0.6c-2.9,3.7-3.8,7.7-3.9,12.2H75.3z M86.3,20.4
						c0.4-0.3,0.9-0.5,1.4-0.8c9-5.2,24.6-2.4,30.8,8.6c3.8,6.6,3.8,14.4,1,20.8l-1-0.6c2.7-6.1,2.5-13.4-0.9-19.6
						c-5.8-10.5-20.7-13-29.2-8.1c-0.5,0.3-0.9,0.5-1.4,0.9C86.8,21.1,86.5,20.7,86.3,20.4"/>
				</g>
				<g>
					<defs>
						<rect id="SVGID_29_" x="-16.3" y="0.4" width="157.3" height="58.2"/>
					</defs>
					<clipPath id="SVGID_30_">
						<use xlink:href="#SVGID_29_"  style="overflow:visible;"/>
					</clipPath>
					<polygon class="st14" points="96.9,39.4 91.2,36.6 97.6,38 98.1,39 					"/>
				</g>
				<g>
					<defs>
						<rect id="SVGID_31_" x="-16.3" y="0.4" width="157.3" height="58.2"/>
					</defs>
					<clipPath id="SVGID_32_">
						<use xlink:href="#SVGID_31_"  style="overflow:visible;"/>
					</clipPath>
					<polygon class="st15" points="97.6,39.9 91.2,41.3 96.8,38.5 98,39 					"/>
				</g>
				<g>
					<defs>
						<rect id="SVGID_33_" x="-16.3" y="0.4" width="157.3" height="58.2"/>
					</defs>
					<clipPath id="SVGID_34_">
						<use xlink:href="#SVGID_33_"  style="overflow:visible;"/>
					</clipPath>
					<polygon class="st16" points="96.8,38.5 94.5,33.2 98.4,38 98,39 					"/>
				</g>
				<g>
					<defs>
						<rect id="SVGID_35_" x="-16.3" y="0.4" width="157.3" height="58.2"/>
					</defs>
					<clipPath id="SVGID_36_">
						<use xlink:href="#SVGID_35_"  style="overflow:visible;"/>
					</clipPath>
					<polygon class="st17" points="98,40.3 91.1,44.3 96.3,39 98,39 					"/>
				</g>
				<g>
					<defs>
						<rect id="SVGID_37_" x="-16.3" y="0.4" width="157.3" height="58.2"/>
					</defs>
					<clipPath id="SVGID_38_">
						<use xlink:href="#SVGID_37_"  style="overflow:visible;"/>
					</clipPath>
					<polygon class="st18" points="96.3,39 91.1,33.7 97.9,37.8 98,39 					"/>
				</g>
				<g>
					<defs>
						<rect id="SVGID_39_" x="-16.3" y="0.4" width="157.3" height="58.2"/>
					</defs>
					<clipPath id="SVGID_40_">
						<use xlink:href="#SVGID_39_"  style="overflow:visible;"/>
					</clipPath>
					<polygon class="st19" points="96.3,40.6 83.1,39 96.3,37.4 98,39 					"/>
				</g>
				<g>
					<defs>
						<rect id="SVGID_41_" x="-16.3" y="0.4" width="157.3" height="58.2"/>
					</defs>
					<clipPath id="SVGID_42_">
						<use xlink:href="#SVGID_41_"  style="overflow:visible;"/>
					</clipPath>
					<path class="st20" d="M80.7,36.6c-1.6,0-2.5,1.4-2.5,2.4c0,1.1,1,1.6,2,1.6c1.6,0,2.5-1.4,2.5-2.3
						C82.7,37.1,81.7,36.6,80.7,36.6 M117.5,40.8c0,0.1-0.1,0.1-0.1,0.3c-0.1,0.1-0.4,0.3-0.8,0.3c-0.5,0-1.1-0.3-2.3-0.6
						c-0.5-0.3-0.6-0.3-0.9-0.4c0.1-0.1,0.3-0.4,0.4-0.8c0.1-0.4,0.3-0.9,0.4-1.3c0.1-0.8,0.3-1,0.5-1.3c0.1-0.1,0.3-0.3,0.5-0.3
						c0.4,0,0.6,0.3,0.6,0.5c0,0.1-0.1,0.4-0.3,0.4c0,0-0.1,0-0.1,0.1l0.1-0.1v-0.1c0-0.1-0.1-0.3-0.3-0.3c-0.1,0-0.4,0.1-0.4,0.3
						s0.1,0.3,0.4,0.3c0.3,0,0.5-0.3,0.5-0.5c0-0.4-0.4-0.5-0.8-0.5c-0.4,0-0.9,0.3-1.3,0.8c-0.3,0.5-0.4,1.3-0.5,1.9
						c-0.1,0.4-0.1,0.5-0.3,0.8c-0.3-0.1-0.4-0.1-0.6-0.1c-0.3,0-0.4,0.1-0.5,0.1c0,0.1-0.1,0.1-0.1,0.3c0,0.3,0.3,0.4,0.5,0.4
						c0.5,0,0.8-0.3,1-0.4c0.1,0.1,0.3,0.1,0.4,0.3c0.4,0.1,0.6,0.4,1,0.5c0.3,0.1,0.5,0.3,0.9,0.4c0.3,0.1,0.5,0.1,0.8,0.1
						c0.4,0,0.6-0.1,0.8-0.3C117.5,41.1,117.5,41.1,117.5,40.8L117.5,40.8z M114.8,40.2c-0.1,0.1-0.4,0.4-0.8,0.4
						c-0.4,0-0.4-0.1-0.4-0.3s0.1-0.3,0.3-0.3c0.1,0,0.1,0,0.3,0C114.4,40.1,114.6,40.2,114.8,40.2 M78.7,39.2
						c0-0.9,0.6-2.4,1.9-2.4c0.6,0,1.4,0.4,1.4,1.5c0,0.9-0.6,2.4-1.9,2.4C79.5,40.6,78.7,40.2,78.7,39.2"/>
				</g>
				<g>
					<defs>
						<rect id="SVGID_43_" x="-16.3" y="0.4" width="157.3" height="58.2"/>
					</defs>
					<clipPath id="SVGID_44_">
						<use xlink:href="#SVGID_43_"  style="overflow:visible;"/>
					</clipPath>
					<path class="st21" d="M83.1,30.3c0.3,0,0.5,0,0.6,0C83.5,30.3,83.4,30.3,83.1,30.3"/>
				</g>
			</g>
		</g>
		<g>
			<defs>
				<rect id="SVGID_45_" x="-16.3" y="0.4" width="157.3" height="58.2"/>
			</defs>
			<clipPath id="SVGID_46_">
				<use xlink:href="#SVGID_45_"  style="overflow:visible;"/>
			</clipPath>
			<g class="st22">
				<text transform="matrix(1.0245 0 0 1 1.1639 35.5454)" class="st23 st24">Um pa</text>
				<text transform="matrix(1.0245 0 0 1 23.1483 35.5454)" class="st23 st24">r</text>
				<text transform="matrix(1.0245 0 0 1 25.4759 35.5454)" class="st23 st24">cei</text>
				<text transform="matrix(1.0245 0 0 1 35.0458 35.5454)" class="st23 st24">r</text>
				<text transform="matrix(1.0245 0 0 1 37.5018 35.5454)" class="st23 st24">o de futu</text>
				<text transform="matrix(1.0245 0 0 1 68.0213 35.5454)" class="st23 st24">r</text>
				<text transform="matrix(1.0245 0 0 1 70.349 35.5454)" class="st23 st24">o</text>
			</g>
		</g>
		<g>
			<defs>
				<rect id="SVGID_47_" x="-16.3" y="0.4" width="157.3" height="58.2"/>
			</defs>
			<clipPath id="SVGID_48_">
				<use xlink:href="#SVGID_47_"  style="overflow:visible;"/>
			</clipPath>
			<g class="st25">
				<g>
					<defs>
						<rect id="SVGID_49_" x="-16.3" y="0.4" width="157.3" height="58.2"/>
					</defs>
					<clipPath id="SVGID_50_">
						<use xlink:href="#SVGID_49_"  style="overflow:visible;"/>
					</clipPath>
					<path class="st26" d="M98,23.8l1.5,14.9c0,1.8-2.9,1.8-3,0L98,23.8z"/>
				</g>
				<g>
					<defs>
						<rect id="SVGID_51_" x="-16.3" y="0.4" width="157.3" height="58.2"/>
					</defs>
					<clipPath id="SVGID_52_">
						<use xlink:href="#SVGID_51_"  style="overflow:visible;"/>
					</clipPath>
					<path class="st27" d="M83,12.2c-2.8,0-5,0.6-6.7,1.8c-1.8,1.3-2.8,3.5-2.8,6.3s0.8,4.8,2.4,6.3c1.6,1.5,3.7,2.1,6.9,2.1
						c6.4,0,9.8-2.8,9.8-8.2C92.6,15.1,89.2,12.2,83,12.2 M83,14.4c2.3,0,3.3,1.9,3.3,6.2c0,4-1,5.9-3.3,5.9c-2.3,0-3.3-1.8-3.3-6.1
						S80.7,14.4,83,14.4 M73.4,12.9c-1.6-0.6-3-0.9-4.9-0.9c-3.4,0-5.6,0.6-7.4,2.1c-1.8,1.4-2.5,3.3-2.5,6.1c0,5.7,3,8.5,9.3,8.5
						c2.3,0,3.7-0.3,5.6-0.9v-3.3c-1.8,1.3-3,1.8-4.3,1.8c-1.1,0-2.3-0.5-3-1.4c-0.9-1-1.3-2.4-1.3-4.5c0-3.5,1.5-5.7,4.2-5.7
						c1.4,0,2.7,0.5,4.4,1.8V12.9z M46.3,12.4c0.1,0.3,0.3,0.4,0.3,0.8v14.4c0,0.4,0,0.5-0.3,0.8h11.5v-2.5
						c-0.4,0.1-0.4,0.1-1.1,0.1h-4.2v-4.5h4.3c0.5,0,0.6,0,0.9,0.1v-2.4c-0.4,0.1-0.4,0.1-1,0.1h-4.3v-4.7h4.3c0.4,0,0.5,0,0.9,0.1
						v-2.3H46.3z M29.1,12.4c0.1,0.3,0.1,0.4,0.1,0.8v14.4c0,0.4,0,0.5-0.1,0.8h9.1c4.7,0,7.7-3.2,7.7-8.1c0-5.2-3.2-7.8-9.3-7.8
						C36.5,12.4,29.1,12.4,29.1,12.4z M35.3,25.9V14.8h0.6c2.4,0,3.7,2,3.7,5.6s-1.3,5.6-3.7,5.6H35.3z M16.7,12.4
						c0.1,0.3,0.1,0.4,0.1,0.8v14.4c0,0.4,0,0.5-0.1,0.8h11.5v-2.5c-0.4,0.1-0.4,0.1-1.1,0.1h-4.2v-4.5h4.3c0.5,0,0.6,0,0.9,0.1
						v-2.4c-0.4,0.1-0.4,0.1-1,0.1h-4.3v-4.7h4.3c0.4,0,0.5,0,0.9,0.1v-2.3H16.7z M16.1,12.9c-1.6-0.6-3-0.9-4.9-0.9
						c-3.4,0-5.6,0.6-7.4,2.1c-1.8,1.4-2.5,3.3-2.5,6.1c0,5.7,3,8.5,9.3,8.5c2.1,0,3.7-0.3,5.6-0.9v-3.3c-1.8,1.3-3,1.8-4.3,1.8
						c-1.1,0-2.3-0.5-2.9-1.4c-0.9-1-1.3-2.4-1.3-4.5c0-3.5,1.5-5.7,4.2-5.7c1.4,0,2.7,0.5,4.4,1.8v-3.5H16.1z"/>
				</g>
				<g>
					<defs>
						<rect id="SVGID_53_" x="-16.3" y="0.4" width="157.3" height="58.2"/>
					</defs>
					<clipPath id="SVGID_54_">
						<use xlink:href="#SVGID_53_"  style="overflow:visible;"/>
					</clipPath>
					<path class="st28" d="M120.9,2.7c-0.4-0.1-0.9-0.3-1.3-0.3c-0.4,0-1,0.1-1.5,0.4c-0.5,0.3-1,0.5-1.5,1l0,0
						c-2.1,1.8-2.9,4.4-3.8,8l0,0L108,31c0,0.1-0.3,0.3-0.4,0.3c-0.1,0-0.3-0.1-0.3-0.3l-8.8-20.4l-2.1,8.2
						c-0.4,1.6-0.9,3.2-1.3,4.5c-0.5,1.4-1.1,2.7-2,3.8c-0.4,0.5-1.1,1.5-2.5,2.5c-1.3,0.9-3.2,1.6-5.6,1.6c-0.9,0-1.8,0-2.5-0.3
						c-0.8-0.3-1.5-0.6-2-1.5c-0.1-0.1,0-0.4,0.1-0.5s0.1-0.1,0.3,0c0.1,0,0.3,0,0.4,0.1c0.1,0,0.3,0,0.4,0c0.1,0,0.3,0,0.3,0.1
						c0.4,0.4,0.6,0.5,0.9,0.5c0.4,0.1,0.9,0.1,1.8,0.1c7.1,0.3,8.8-6.9,10-11.1v-0.1l0,0L97,8.2h-3.4c-0.3,0-0.4-0.1-0.4-0.4
						c0,0,0,0,0-0.1l0.1-0.5c0-0.1,0.1-0.3,0.4-0.3h6.9c0.1,0,0.4,0.1,0.4,0.3l6.9,16.2l3.2-12.2v0c1-3.4,2.8-10,8.2-10
						c1.3,0,2.1,0.4,2.9,0.9c0.8,0.6,1.1,1.4,1.1,2.3c0,0.8-0.3,1.4-0.8,1.8c-0.5,0.5-1.3,0.8-2,0.8c-0.6,0-1.3-0.3-1.6-0.6
						c-0.4-0.4-0.6-0.9-0.6-1.5s0.3-1.1,0.8-1.5C119.6,2.9,120.2,2.7,120.9,2.7L120.9,2.7z"/>
				</g>
			</g>
		</g>
	</g>
</g>
</svg>
