<?xml version="1.0" encoding="utf-8"?>
<!-- Generator: Adobe Illustrator 25.0.0, SVG Export Plug-In . SVG Version: 6.00 Build 0)  -->
<svg version="1.1" id="Camada_1" xmlns="http://www.w3.org/2000/svg" xmlns:xlink="http://www.w3.org/1999/xlink" x="0px" y="0px"
	 viewBox="0 0 185.5 59.6" style="enable-background:new 0 0 185.5 59.6;" xml:space="preserve">
<style type="text/css">
	.st0{fill:#FFB900;}
	.st1{fill:#072E53;}
</style>
<g>
	<path class="st0" d="M57.1,18.8l-24.5-8.6c-0.3-0.1-0.7-0.1-1,0L7,18.8c-0.6,0.2-1,0.8-1,1.4s0.4,1.2,1,1.4l24.5,8.7
		c0.2,0.1,0.3,0.1,0.5,0.1s0.3,0,0.5-0.1L57,21.6c0.6-0.2,1-0.8,1-1.4C58.1,19.6,57.7,19,57.1,18.8z"/>
	<path class="st0" d="M54.4,39.1V25.8l-3.1,1.1v12.2c-0.9,0.5-1.5,1.5-1.5,2.7c0,1.1,0.6,2.1,1.5,2.7V52c0,0.8,0.7,1.5,1.5,1.5
		s1.5-0.7,1.5-1.5v-7.5c0.9-0.5,1.5-1.5,1.5-2.7C56,40.7,55.3,39.7,54.4,39.1z"/>
	<path class="st0" d="M32.1,33.5c-0.5,0-1-0.1-1.5-0.3l-13.8-4.9V35c0,1.6,1.7,3,5.1,4.1c2.9,1,6.6,1.5,10.2,1.5s7.3-0.5,10.2-1.5
		c3.4-1.1,5.1-2.5,5.1-4.1v-6.7l-13.8,4.9C33.1,33.4,32.6,33.5,32.1,33.5z"/>
</g>
<g>
	<g>
		<path class="st1" d="M77.1,26.5c-0.6,0.3-2,0.7-3.8,0.7c-5.2,0-7.8-3.5-7.8-8c0-5.5,3.6-8.5,8.1-8.5c1.7,0,3.1,0.4,3.7,0.7
			l-0.7,2.9c-0.7-0.3-1.6-0.6-2.8-0.6c-2.7,0-4.8,1.7-4.8,5.3c0,3.2,1.8,5.2,4.8,5.2c1,0,2.1-0.2,2.8-0.5L77.1,26.5z"/>
		<path class="st1" d="M82.6,10.9v9.2c0,2.8,1,4.2,2.7,4.2c1.8,0,2.7-1.3,2.7-4.2v-9.2h3.4v9c0,5-2.3,7.3-6.2,7.3
			c-3.8,0-6-2.2-6-7.4v-9H82.6z"/>
		<path class="st1" d="M94.4,11.1c1.1-0.2,2.7-0.3,4.5-0.3c2.2,0,3.8,0.4,4.8,1.3c0.9,0.8,1.4,1.9,1.4,3.4c0,2-1.3,3.5-2.6,4v0.1
			c1,0.5,1.6,1.5,2,3c0.5,1.8,0.9,3.9,1.2,4.5h-3.4c-0.2-0.5-0.6-1.8-1-3.7c-0.4-2-1-2.5-2.4-2.6h-1v6.3h-3.3V11.1z M97.7,18H99
			c1.7,0,2.7-0.9,2.7-2.3c0-1.5-0.9-2.2-2.5-2.2c-0.8,0-1.3,0.1-1.5,0.1V18z"/>
		<path class="st1" d="M107.6,23.2c0.9,0.5,2.3,1,3.7,1c1.5,0,2.4-0.7,2.4-1.7c0-1-0.7-1.6-2.5-2.3c-2.5-0.9-4.1-2.4-4.1-4.7
			c0-2.7,2.1-4.8,5.6-4.8c1.7,0,2.9,0.4,3.8,0.8l-0.8,2.9c-0.6-0.3-1.7-0.8-3.1-0.8s-2.2,0.7-2.2,1.5c0,1,0.8,1.5,2.8,2.3
			c2.6,1,3.9,2.5,3.9,4.8c0,2.7-1.9,5-6,5c-1.7,0-3.4-0.5-4.2-1L107.6,23.2z"/>
		<path class="st1" d="M133.1,18.7c0,5.3-3,8.5-7.3,8.5c-4.4,0-7-3.6-7-8.2c0-4.8,2.9-8.4,7.3-8.4C130.6,10.6,133.1,14.3,133.1,18.7
			z M122.3,18.9c0,3.1,1.4,5.4,3.6,5.4c2.3,0,3.6-2.3,3.6-5.5c0-2.9-1.3-5.4-3.6-5.4C123.6,13.5,122.3,15.8,122.3,18.9z"/>
		<path class="st1" d="M135.4,23.2c0.9,0.5,2.3,1,3.7,1c1.5,0,2.4-0.7,2.4-1.7c0-1-0.7-1.6-2.5-2.3c-2.5-0.9-4.1-2.4-4.1-4.7
			c0-2.7,2.1-4.8,5.6-4.8c1.7,0,2.9,0.4,3.8,0.8l-0.8,2.9c-0.6-0.3-1.7-0.8-3.1-0.8s-2.2,0.7-2.2,1.5c0,1,0.8,1.5,2.8,2.3
			c2.6,1,3.9,2.5,3.9,4.8c0,2.7-1.9,5-6,5c-1.7,0-3.4-0.5-4.2-1L135.4,23.2z"/>
	</g>
	<g>
		<path class="st1" d="M69.4,35.7h-4v-3h11.5v3h-4.1v13h-3.4V35.7z"/>
		<path class="st1" d="M87.5,41.9h-5.5v3.8h6.1v3h-9.5V32.7h9.2v3h-5.8V39h5.5V41.9z M87.1,28.9l-2.7,2.9h-2.7l1.9-2.9H87.1z"/>
		<path class="st1" d="M101.4,48.3c-0.6,0.3-2,0.7-3.8,0.7c-5.2,0-7.8-3.5-7.8-8c0-5.5,3.6-8.5,8.1-8.5c1.7,0,3.1,0.4,3.7,0.7
			l-0.7,2.9c-0.7-0.3-1.6-0.6-2.8-0.6c-2.7,0-4.8,1.7-4.8,5.3c0,3.2,1.8,5.2,4.8,5.2c1,0,2.1-0.2,2.8-0.5L101.4,48.3z"/>
		<path class="st1" d="M103.6,48.7V32.7h3.9l3.1,5.9c0.9,1.7,1.8,3.7,2.4,5.5h0.1c-0.2-2.1-0.3-4.3-0.3-6.7v-4.7h3.1v16.1h-3.5
			l-3.2-6.2c-0.9-1.7-1.9-3.8-2.6-5.7l-0.1,0c0.1,2.1,0.1,4.4,0.1,7v4.8H103.6z"/>
		<path class="st1" d="M122.3,32.7v16.1h-3.4V32.7H122.3z"/>
		<path class="st1" d="M136.1,48.3c-0.6,0.3-2,0.7-3.8,0.7c-5.2,0-7.8-3.5-7.8-8c0-5.5,3.6-8.5,8.1-8.5c1.7,0,3.1,0.4,3.7,0.7
			l-0.7,2.9c-0.7-0.3-1.6-0.6-2.8-0.6c-2.7,0-4.8,1.7-4.8,5.3c0,3.2,1.8,5.2,4.8,5.2c1,0,2.1-0.2,2.8-0.5L136.1,48.3z"/>
		<path class="st1" d="M151.3,40.5c0,5.3-3,8.5-7.3,8.5c-4.4,0-7-3.6-7-8.2c0-4.8,2.9-8.4,7.3-8.4C148.8,32.4,151.3,36.1,151.3,40.5
			z M140.6,40.8c0,3.1,1.4,5.4,3.6,5.4c2.3,0,3.6-2.3,3.6-5.5c0-2.9-1.3-5.4-3.6-5.4C141.9,35.3,140.6,37.6,140.6,40.8z"/>
		<path class="st1" d="M153.7,45c0.9,0.5,2.3,1,3.7,1c1.5,0,2.4-0.7,2.4-1.7c0-1-0.7-1.6-2.5-2.3c-2.5-0.9-4.1-2.4-4.1-4.7
			c0-2.7,2.1-4.8,5.6-4.8c1.7,0,2.9,0.4,3.8,0.8l-0.8,2.9c-0.6-0.3-1.7-0.8-3.1-0.8s-2.2,0.7-2.2,1.5c0,1,0.8,1.5,2.8,2.3
			c2.6,1,3.9,2.5,3.9,4.8c0,2.7-1.9,5-6,5c-1.7,0-3.4-0.5-4.2-1L153.7,45z"/>
	</g>
</g>
</svg>
