<?xml version="1.0" encoding="utf-8"?>
<!-- Generator: Adobe Illustrator 25.0.0, SVG Export Plug-In . SVG Version: 6.00 Build 0)  -->
<svg version="1.1" id="Camada_1" xmlns="http://www.w3.org/2000/svg" xmlns:xlink="http://www.w3.org/1999/xlink" x="0px" y="0px"
	 viewBox="0 0 185.5 59.6" style="enable-background:new 0 0 185.5 59.6;" xml:space="preserve">
<style type="text/css">
	.st0{fill:#FFB900;}
	.st1{fill:#072E53;}
</style>
<g>
	<path class="st0" d="M57.1,18.8l-24.5-8.6c-0.3-0.1-0.7-0.1-1,0L7,18.8c-0.6,0.2-1,0.8-1,1.4s0.4,1.2,1,1.4l24.5,8.7
		c0.2,0.1,0.3,0.1,0.5,0.1s0.3,0,0.5-0.1L57,21.6c0.6-0.2,1-0.8,1-1.4C58.1,19.6,57.7,19,57.1,18.8z"/>
	<path class="st0" d="M54.4,39.1V25.8l-3.1,1.1v12.2c-0.9,0.5-1.5,1.5-1.5,2.7c0,1.1,0.6,2.1,1.5,2.7V52c0,0.8,0.7,1.5,1.5,1.5
		s1.5-0.7,1.5-1.5v-7.5c0.9-0.5,1.5-1.5,1.5-2.7C56,40.7,55.3,39.7,54.4,39.1z"/>
	<path class="st0" d="M32.1,33.5c-0.5,0-1-0.1-1.5-0.3l-13.8-4.9V35c0,1.6,1.7,3,5.1,4.1c2.9,1,6.6,1.5,10.2,1.5s7.3-0.5,10.2-1.5
		c3.4-1.1,5.1-2.5,5.1-4.1v-6.7l-13.8,4.9C33.1,33.4,32.6,33.5,32.1,33.5z"/>
</g>
<g>
	<path class="st1" d="M77.1,23.1c-0.6,0.3-1.9,0.6-3.6,0.6c-4.8,0-7.3-3-7.3-7c0-4.7,3.4-7.4,7.6-7.4c1.6,0,2.9,0.3,3.4,0.6
		l-0.6,2.5c-0.6-0.3-1.5-0.5-2.6-0.5c-2.5,0-4.4,1.5-4.4,4.6c0,2.8,1.7,4.5,4.5,4.5c0.9,0,2-0.2,2.6-0.5L77.1,23.1z"/>
	<path class="st1" d="M82.3,9.6v8c0,2.4,0.9,3.6,2.5,3.6c1.7,0,2.6-1.2,2.6-3.6v-8h3.1v7.8c0,4.3-2.2,6.3-5.8,6.3
		c-3.5,0-5.6-1.9-5.6-6.4V9.6H82.3z"/>
	<path class="st1" d="M93.3,9.8c1-0.2,2.5-0.3,4.2-0.3c2.1,0,3.5,0.3,4.5,1.1c0.8,0.7,1.3,1.6,1.3,2.9c0,1.8-1.3,3-2.5,3.4V17
		c1,0.4,1.5,1.3,1.9,2.6c0.4,1.6,0.9,3.4,1.1,3.9h-3.2c-0.2-0.4-0.6-1.5-1-3.2c-0.4-1.7-1-2.2-2.2-2.2h-0.9v5.5h-3.1V9.8z
		 M96.4,15.7h1.2c1.6,0,2.5-0.8,2.5-2c0-1.3-0.9-1.9-2.3-1.9c-0.8,0-1.2,0.1-1.4,0.1V15.7z"/>
	<path class="st1" d="M105.6,20.2c0.8,0.4,2.1,0.9,3.5,0.9c1.4,0,2.2-0.6,2.2-1.5c0-0.9-0.7-1.4-2.3-2c-2.3-0.8-3.8-2.1-3.8-4.1
		c0-2.4,2-4.2,5.3-4.2c1.6,0,2.7,0.3,3.5,0.7l-0.7,2.5c-0.6-0.3-1.5-0.7-2.9-0.7c-1.4,0-2,0.6-2,1.3c0,0.9,0.8,1.3,2.6,2
		c2.5,0.9,3.6,2.2,3.6,4.1c0,2.3-1.8,4.3-5.6,4.3c-1.6,0-3.2-0.4-3.9-0.8L105.6,20.2z"/>
	<path class="st1" d="M129.4,16.4c0,4.6-2.8,7.3-6.8,7.3c-4.1,0-6.5-3.1-6.5-7.1c0-4.2,2.7-7.3,6.8-7.3
		C127,9.3,129.4,12.5,129.4,16.4z M119.3,16.6c0,2.7,1.3,4.6,3.4,4.6c2.1,0,3.3-2,3.3-4.7c0-2.5-1.2-4.6-3.4-4.6
		C120.5,11.8,119.3,13.9,119.3,16.6z"/>
	<path class="st1" d="M131.5,20.2c0.8,0.4,2.1,0.9,3.5,0.9c1.4,0,2.2-0.6,2.2-1.5c0-0.9-0.7-1.4-2.3-2c-2.3-0.8-3.8-2.1-3.8-4.1
		c0-2.4,2-4.2,5.3-4.2c1.6,0,2.7,0.3,3.5,0.7l-0.7,2.5c-0.6-0.3-1.5-0.7-2.9-0.7c-1.4,0-2,0.6-2,1.3c0,0.9,0.8,1.3,2.6,2
		c2.5,0.9,3.6,2.2,3.6,4.1c0,2.3-1.8,4.3-5.6,4.3c-1.6,0-3.2-0.4-3.9-0.8L131.5,20.2z"/>
	<path class="st1" d="M66.9,34.3h3.2v11.3h5.5v2.6h-8.7V34.3z"/>
	<path class="st1" d="M80.6,34.3v13.9h-3.2V34.3H80.6z"/>
	<path class="st1" d="M86.6,48.2l-4.5-13.9h3.4l1.7,5.9c0.5,1.7,0.9,3.2,1.2,5h0.1c0.4-1.7,0.8-3.3,1.3-4.9l1.8-5.9H95l-4.7,13.9
		H86.6z"/>
	<path class="st1" d="M96.5,34.5c1-0.2,2.5-0.3,4.2-0.3c2.1,0,3.5,0.3,4.5,1.1c0.8,0.7,1.3,1.6,1.3,2.9c0,1.8-1.3,3-2.5,3.4v0.1
		c1,0.4,1.5,1.3,1.9,2.6c0.4,1.6,0.9,3.4,1.1,3.9h-3.2c-0.2-0.4-0.6-1.5-1-3.2c-0.4-1.7-1-2.2-2.2-2.2h-0.9v5.5h-3.1V34.5z
		 M99.6,40.5h1.2c1.6,0,2.5-0.8,2.5-2c0-1.3-0.9-1.9-2.3-1.9c-0.8,0-1.2,0.1-1.4,0.1V40.5z"/>
	<path class="st1" d="M117,42.3h-5.1v3.3h5.7v2.6h-8.9V34.3h8.6v2.6h-5.4v2.9h5.1V42.3z"/>
	<path class="st1" d="M119.8,45c0.8,0.4,2.1,0.9,3.5,0.9c1.4,0,2.2-0.6,2.2-1.5c0-0.9-0.7-1.4-2.3-2c-2.3-0.8-3.8-2.1-3.8-4.1
		c0-2.4,2-4.2,5.3-4.2c1.6,0,2.7,0.3,3.5,0.7l-0.7,2.5c-0.6-0.3-1.5-0.7-2.9-0.7c-1.4,0-2,0.6-2,1.3c0,0.9,0.8,1.3,2.6,2
		c2.5,0.9,3.6,2.2,3.6,4.1c0,2.3-1.8,4.3-5.6,4.3c-1.6,0-3.2-0.4-3.9-0.8L119.8,45z"/>
</g>
</svg>
