<?xml version="1.0" encoding="utf-8"?>
<!-- Generator: Adobe Illustrator 25.0.0, SVG Export Plug-In . SVG Version: 6.00 Build 0)  -->
<svg version="1.1" id="Camada_1" xmlns="http://www.w3.org/2000/svg" xmlns:xlink="http://www.w3.org/1999/xlink" x="0px" y="0px"
	 viewBox="0 0 185.5 59.6" style="enable-background:new 0 0 185.5 59.6;" xml:space="preserve">
<style type="text/css">
	.st0{fill:#FFB900;}
	.st1{fill:#072E53;}
</style>
<g>
	<path class="st0" d="M51.6,18.8l-24.5-8.6c-0.3-0.1-0.7-0.1-1,0L1.5,18.8c-0.6,0.2-1,0.8-1,1.4s0.4,1.2,1,1.4L26,30.3
		c0.2,0.1,0.3,0.1,0.5,0.1s0.3,0,0.5-0.1l24.5-8.7c0.6-0.2,1-0.8,1-1.4C52.6,19.6,52.2,19,51.6,18.8z"/>
	<path class="st0" d="M48.9,39.1V25.8l-3.1,1.1v12.2c-0.9,0.5-1.5,1.5-1.5,2.7c0,1.1,0.6,2.1,1.5,2.7V52c0,0.8,0.7,1.5,1.5,1.5
		s1.5-0.7,1.5-1.5v-7.5c0.9-0.5,1.5-1.5,1.5-2.7C50.5,40.7,49.8,39.7,48.9,39.1z"/>
	<path class="st0" d="M26.6,33.5c-0.5,0-1-0.1-1.5-0.3l-13.8-4.9V35c0,1.6,1.7,3,5.1,4.1c2.9,1,6.6,1.5,10.2,1.5s7.3-0.5,10.2-1.5
		c3.4-1.1,5.1-2.5,5.1-4.1v-6.7l-13.8,4.9C27.6,33.4,27.1,33.5,26.6,33.5z"/>
</g>
<g>
	<path class="st1" d="M59.7,24.7c-1.7,0-3-0.5-3.9-1.4c-0.9-0.9-1.3-2.3-1.3-4c0-0.9,0.1-1.6,0.4-2.3c0.3-0.7,0.6-1.2,1.1-1.7
		c0.5-0.5,1-0.8,1.7-1.1c0.7-0.2,1.4-0.4,2.1-0.4c0.4,0,0.8,0,1.2,0.1c0.4,0.1,0.7,0.1,0.9,0.2c0.3,0.1,0.5,0.2,0.7,0.3
		c0.2,0.1,0.3,0.2,0.4,0.2l-0.7,1.9c-0.3-0.2-0.7-0.3-1.1-0.4c-0.4-0.1-0.9-0.2-1.5-0.2c-0.4,0-0.7,0.1-1.1,0.2
		c-0.3,0.1-0.7,0.3-0.9,0.6c-0.3,0.3-0.5,0.6-0.6,1c-0.2,0.4-0.2,0.9-0.2,1.5c0,0.5,0.1,0.9,0.2,1.3c0.1,0.4,0.3,0.8,0.5,1.1
		c0.2,0.3,0.5,0.5,0.9,0.7c0.4,0.2,0.8,0.3,1.4,0.3c0.3,0,0.6,0,0.9-0.1c0.3,0,0.5-0.1,0.7-0.1c0.2-0.1,0.4-0.1,0.6-0.2
		c0.2-0.1,0.3-0.1,0.4-0.2l0.6,1.9c-0.3,0.2-0.8,0.4-1.4,0.5C61.2,24.6,60.5,24.7,59.7,24.7z"/>
	<path class="st1" d="M68.8,24.7c-0.7,0-1.4-0.1-1.9-0.3c-0.5-0.2-1-0.5-1.3-0.9c-0.3-0.4-0.6-0.8-0.8-1.3c-0.2-0.5-0.2-1.1-0.2-1.7
		V14h2.3v6.3c0,0.4,0,0.8,0.1,1.1c0.1,0.3,0.2,0.5,0.4,0.7c0.2,0.2,0.4,0.3,0.6,0.4c0.2,0.1,0.5,0.1,0.8,0.1c0.6,0,1-0.2,1.4-0.5
		c0.4-0.4,0.5-0.9,0.5-1.8V14h2.3v6.5c0,0.6-0.1,1.2-0.3,1.7c-0.2,0.5-0.4,0.9-0.8,1.3c-0.4,0.4-0.8,0.6-1.3,0.8
		C70.2,24.6,69.5,24.7,68.8,24.7z"/>
	<path class="st1" d="M78.4,13.9c1.6,0,2.8,0.3,3.6,0.8c0.8,0.6,1.2,1.4,1.2,2.6c0,0.7-0.2,1.3-0.5,1.8c-0.3,0.5-0.8,0.8-1.5,1.1
		c0.2,0.3,0.4,0.6,0.7,0.9c0.2,0.3,0.5,0.7,0.7,1.1c0.2,0.4,0.4,0.7,0.7,1.1c0.2,0.4,0.4,0.8,0.6,1.2h-2.6c-0.2-0.3-0.4-0.7-0.6-1
		c-0.2-0.4-0.4-0.7-0.6-1s-0.4-0.6-0.6-0.9c-0.2-0.3-0.4-0.6-0.6-0.8h-1.2v3.8h-2.3V14.2c0.5-0.1,1-0.2,1.6-0.2
		C77.5,13.9,77.9,13.9,78.4,13.9z M78.5,15.9c-0.2,0-0.3,0-0.5,0c-0.1,0-0.3,0-0.4,0v2.8h0.7c0.9,0,1.5-0.1,1.9-0.3
		c0.4-0.2,0.6-0.6,0.6-1.1c0-0.5-0.2-0.9-0.6-1.1C79.8,16,79.3,15.9,78.5,15.9z"/>
	<path class="st1" d="M88.2,22.7c0.3,0,0.6,0,0.8-0.1c0.2-0.1,0.4-0.1,0.5-0.2s0.2-0.2,0.3-0.3c0-0.1,0.1-0.3,0.1-0.4
		c0-0.3-0.2-0.6-0.5-0.8c-0.3-0.2-0.9-0.5-1.7-0.7c-0.3-0.1-0.7-0.3-1-0.4c-0.3-0.2-0.6-0.4-0.9-0.6c-0.3-0.2-0.5-0.5-0.7-0.9
		c-0.2-0.3-0.3-0.7-0.3-1.2c0-0.5,0.1-0.9,0.3-1.3c0.2-0.4,0.4-0.7,0.8-1c0.3-0.3,0.7-0.5,1.2-0.6c0.5-0.1,1-0.2,1.6-0.2
		c0.7,0,1.3,0.1,1.8,0.2c0.5,0.2,0.9,0.3,1.3,0.5l-0.7,1.8c-0.3-0.2-0.6-0.3-1-0.4c-0.4-0.1-0.8-0.2-1.3-0.2c-0.6,0-1,0.1-1.2,0.2
		c-0.2,0.2-0.4,0.4-0.4,0.7c0,0.2,0,0.4,0.1,0.5c0.1,0.1,0.2,0.2,0.4,0.4c0.2,0.1,0.4,0.2,0.6,0.3c0.2,0.1,0.5,0.2,0.7,0.3
		c0.5,0.2,1,0.4,1.4,0.6c0.4,0.2,0.7,0.4,1,0.7c0.3,0.3,0.5,0.6,0.6,0.9c0.1,0.4,0.2,0.8,0.2,1.3c0,1-0.3,1.7-1,2.3
		c-0.7,0.5-1.7,0.8-3.1,0.8c-0.5,0-0.9,0-1.2-0.1c-0.4-0.1-0.7-0.1-1-0.2c-0.3-0.1-0.5-0.2-0.7-0.3c-0.2-0.1-0.4-0.2-0.5-0.3
		l0.7-1.9c0.3,0.2,0.7,0.3,1.1,0.5C87,22.6,87.5,22.7,88.2,22.7z"/>
	<path class="st1" d="M104,19.2c0,0.9-0.1,1.7-0.4,2.4c-0.3,0.7-0.6,1.2-1.1,1.7c-0.5,0.5-1,0.8-1.6,1c-0.6,0.2-1.3,0.3-2.1,0.3
		c-0.7,0-1.4-0.1-2-0.3c-0.6-0.2-1.2-0.6-1.7-1c-0.5-0.5-0.8-1-1.1-1.7c-0.3-0.7-0.4-1.5-0.4-2.4c0-0.9,0.1-1.7,0.4-2.4
		c0.3-0.7,0.7-1.2,1.1-1.7c0.5-0.5,1-0.8,1.7-1c0.6-0.2,1.3-0.3,2-0.3c0.7,0,1.4,0.1,2,0.3c0.6,0.2,1.2,0.6,1.7,1
		c0.5,0.5,0.8,1,1.1,1.7C103.9,17.6,104,18.3,104,19.2z M96.1,19.2c0,0.5,0.1,1,0.2,1.4c0.1,0.4,0.3,0.8,0.5,1.1s0.5,0.5,0.9,0.7
		c0.3,0.2,0.7,0.2,1.2,0.2c0.4,0,0.8-0.1,1.2-0.2c0.3-0.2,0.6-0.4,0.9-0.7c0.2-0.3,0.4-0.6,0.5-1.1c0.1-0.4,0.2-0.9,0.2-1.4
		c0-0.5-0.1-1-0.2-1.4c-0.1-0.4-0.3-0.8-0.5-1.1c-0.2-0.3-0.5-0.5-0.9-0.7c-0.3-0.2-0.7-0.2-1.2-0.2c-0.4,0-0.8,0.1-1.2,0.2
		c-0.3,0.2-0.6,0.4-0.9,0.7c-0.2,0.3-0.4,0.7-0.5,1.1C96.1,18.3,96.1,18.7,96.1,19.2z"/>
	<path class="st1" d="M118.7,19.2c0,0.9-0.1,1.7-0.4,2.4c-0.3,0.7-0.7,1.2-1.2,1.7c-0.5,0.4-1.1,0.8-1.9,1c-0.7,0.2-1.6,0.3-2.5,0.3
		c-0.4,0-0.9,0-1.5-0.1c-0.6,0-1.1-0.1-1.7-0.2V14.2c0.5-0.1,1.1-0.2,1.7-0.2c0.6,0,1.1-0.1,1.5-0.1c0.9,0,1.7,0.1,2.4,0.3
		c0.7,0.2,1.4,0.5,1.9,0.9c0.5,0.4,0.9,1,1.2,1.7C118.6,17.5,118.7,18.3,118.7,19.2z M111.9,22.5c0.1,0,0.2,0,0.4,0
		c0.1,0,0.3,0,0.5,0c1.2,0,2-0.3,2.6-0.9s0.8-1.4,0.8-2.5c0-1.1-0.3-1.9-0.8-2.5c-0.5-0.6-1.4-0.8-2.6-0.8c-0.2,0-0.3,0-0.5,0
		c-0.2,0-0.3,0-0.5,0V22.5z"/>
	<path class="st1" d="M120.7,24.4V14h7v2H123v2h4.2V20H123v2.5h5v2H120.7z"/>
	<path class="st1" d="M58.1,31.9c1.6,0,2.7,0.3,3.6,0.8c0.8,0.5,1.2,1.4,1.2,2.7c0,1.3-0.4,2.2-1.3,2.7c-0.8,0.6-2,0.8-3.6,0.8h-0.7
		v3.5H55V32.2c0.5-0.1,1.1-0.2,1.6-0.2C57.2,32,57.7,31.9,58.1,31.9z M58.2,33.9c-0.2,0-0.3,0-0.5,0c-0.2,0-0.3,0-0.4,0v3H58
		c0.8,0,1.4-0.1,1.8-0.3c0.4-0.2,0.6-0.6,0.6-1.2c0-0.3-0.1-0.5-0.2-0.7c-0.1-0.2-0.3-0.3-0.5-0.5c-0.2-0.1-0.4-0.2-0.7-0.2
		C58.9,34,58.6,33.9,58.2,33.9z"/>
	<path class="st1" d="M74.6,37.3c0,0.9-0.1,1.7-0.4,2.4s-0.6,1.2-1.1,1.7c-0.5,0.5-1,0.8-1.6,1c-0.6,0.2-1.3,0.3-2.1,0.3
		c-0.7,0-1.4-0.1-2-0.3c-0.6-0.2-1.2-0.6-1.7-1c-0.5-0.5-0.8-1-1.1-1.7c-0.3-0.7-0.4-1.5-0.4-2.4c0-0.9,0.1-1.7,0.4-2.4
		c0.3-0.7,0.7-1.2,1.1-1.7c0.5-0.5,1-0.8,1.7-1c0.6-0.2,1.3-0.3,2-0.3c0.7,0,1.4,0.1,2,0.3c0.6,0.2,1.2,0.6,1.7,1
		c0.5,0.5,0.8,1,1.1,1.7C74.4,35.6,74.6,36.4,74.6,37.3z M66.6,37.3c0,0.5,0.1,1,0.2,1.4c0.1,0.4,0.3,0.8,0.5,1.1
		c0.2,0.3,0.5,0.5,0.9,0.7c0.3,0.2,0.7,0.2,1.2,0.2c0.4,0,0.8-0.1,1.2-0.2c0.3-0.2,0.6-0.4,0.9-0.7c0.2-0.3,0.4-0.6,0.5-1.1
		c0.1-0.4,0.2-0.9,0.2-1.4c0-0.5-0.1-1-0.2-1.4c-0.1-0.4-0.3-0.8-0.5-1.1c-0.2-0.3-0.5-0.5-0.9-0.7c-0.3-0.2-0.7-0.2-1.2-0.2
		c-0.4,0-0.8,0.1-1.2,0.2c-0.3,0.2-0.6,0.4-0.9,0.7c-0.2,0.3-0.4,0.7-0.5,1.1C66.7,36.3,66.6,36.8,66.6,37.3z M71.1,29.3l-2.5,2.1
		l-1-0.9l2.1-2.4L71.1,29.3z"/>
	<path class="st1" d="M79.4,40.7c0.3,0,0.6,0,0.8-0.1c0.2-0.1,0.4-0.1,0.5-0.2c0.1-0.1,0.2-0.2,0.3-0.3c0-0.1,0.1-0.3,0.1-0.4
		c0-0.3-0.2-0.6-0.5-0.8c-0.3-0.2-0.9-0.5-1.7-0.7c-0.3-0.1-0.7-0.3-1-0.4c-0.3-0.2-0.6-0.4-0.9-0.6c-0.3-0.2-0.5-0.5-0.7-0.9
		C76.1,35.8,76,35.4,76,35c0-0.5,0.1-0.9,0.3-1.3c0.2-0.4,0.4-0.7,0.8-1c0.3-0.3,0.7-0.5,1.2-0.6c0.5-0.1,1-0.2,1.6-0.2
		c0.7,0,1.3,0.1,1.8,0.2c0.5,0.2,0.9,0.3,1.3,0.5l-0.7,1.8c-0.3-0.2-0.6-0.3-1-0.4c-0.4-0.1-0.8-0.2-1.3-0.2c-0.6,0-1,0.1-1.2,0.2
		c-0.2,0.2-0.4,0.4-0.4,0.7c0,0.2,0,0.4,0.1,0.5c0.1,0.1,0.2,0.2,0.4,0.4c0.2,0.1,0.4,0.2,0.6,0.3c0.2,0.1,0.5,0.2,0.7,0.3
		c0.5,0.2,1,0.4,1.4,0.6c0.4,0.2,0.7,0.4,1,0.7c0.3,0.3,0.5,0.6,0.6,0.9c0.1,0.4,0.2,0.8,0.2,1.3c0,1-0.3,1.7-1,2.3
		c-0.7,0.5-1.7,0.8-3.1,0.8c-0.5,0-0.9,0-1.2-0.1c-0.4-0.1-0.7-0.1-1-0.2c-0.3-0.1-0.5-0.2-0.7-0.3c-0.2-0.1-0.4-0.2-0.5-0.3
		l0.7-1.9c0.3,0.2,0.7,0.3,1.1,0.5C78.1,40.6,78.7,40.7,79.4,40.7z"/>
	<path class="st1" d="M84.9,37h4.4v2h-4.4V37z"/>
	<path class="st1" d="M96.2,33.9c-1.1,0-1.9,0.3-2.4,0.9c-0.5,0.6-0.7,1.4-0.7,2.5c0,0.5,0.1,1,0.2,1.4c0.1,0.4,0.3,0.8,0.5,1.1
		c0.2,0.3,0.5,0.5,0.9,0.7c0.4,0.2,0.8,0.2,1.3,0.2c0.3,0,0.5,0,0.7,0c0.2,0,0.3,0,0.5-0.1V37h2.3v5.2c-0.3,0.1-0.7,0.2-1.4,0.4
		c-0.6,0.1-1.4,0.2-2.3,0.2c-0.8,0-1.5-0.1-2.1-0.4c-0.6-0.2-1.2-0.6-1.6-1.1c-0.5-0.5-0.8-1-1-1.7c-0.2-0.7-0.4-1.4-0.4-2.3
		c0-0.9,0.1-1.6,0.4-2.3c0.3-0.7,0.6-1.2,1.1-1.7c0.5-0.5,1-0.8,1.7-1.1c0.6-0.2,1.3-0.4,2-0.4c0.5,0,0.9,0,1.3,0.1
		c0.4,0.1,0.7,0.1,1,0.2c0.3,0.1,0.5,0.2,0.7,0.3c0.2,0.1,0.3,0.2,0.4,0.2l-0.7,1.9c-0.3-0.2-0.7-0.3-1.1-0.4
		C97.1,33.9,96.7,33.9,96.2,33.9z"/>
	<path class="st1" d="M104.7,31.9c1.6,0,2.8,0.3,3.6,0.8c0.8,0.6,1.2,1.4,1.2,2.6c0,0.7-0.2,1.3-0.5,1.8c-0.3,0.5-0.8,0.8-1.5,1.1
		c0.2,0.3,0.4,0.6,0.7,0.9c0.2,0.3,0.5,0.7,0.7,1.1c0.2,0.4,0.4,0.7,0.7,1.1c0.2,0.4,0.4,0.8,0.6,1.2h-2.6c-0.2-0.3-0.4-0.7-0.6-1
		c-0.2-0.4-0.4-0.7-0.6-1c-0.2-0.3-0.4-0.6-0.6-0.9c-0.2-0.3-0.4-0.6-0.6-0.8H104v3.8h-2.3V32.2c0.5-0.1,1-0.2,1.6-0.2
		C103.8,32,104.3,31.9,104.7,31.9z M104.8,33.9c-0.2,0-0.3,0-0.5,0c-0.1,0-0.3,0-0.4,0v2.8h0.7c0.9,0,1.5-0.1,1.9-0.3
		c0.4-0.2,0.6-0.6,0.6-1.1c0-0.5-0.2-0.9-0.6-1.1C106.2,34.1,105.6,33.9,104.8,33.9z"/>
	<path class="st1" d="M119.1,42.5c-0.1-0.4-0.2-0.7-0.4-1.1c-0.1-0.4-0.3-0.8-0.4-1.1h-4.1c-0.1,0.4-0.3,0.8-0.4,1.1
		c-0.1,0.4-0.3,0.8-0.4,1.1h-2.4c0.4-1.1,0.8-2.2,1.1-3.1c0.4-1,0.7-1.8,1-2.7c0.3-0.8,0.7-1.6,1-2.4c0.3-0.8,0.7-1.5,1-2.2h2.2
		c0.3,0.7,0.7,1.5,1,2.2c0.3,0.8,0.7,1.6,1,2.4c0.3,0.8,0.7,1.7,1,2.7c0.4,1,0.7,2,1.1,3.1H119.1z M116.3,34.4
		c-0.1,0.2-0.1,0.4-0.2,0.6c-0.1,0.3-0.2,0.6-0.3,0.9c-0.1,0.3-0.3,0.7-0.4,1.1c-0.2,0.4-0.3,0.8-0.5,1.3h3
		c-0.2-0.5-0.3-0.9-0.5-1.3c-0.1-0.4-0.3-0.8-0.4-1.1c-0.1-0.3-0.3-0.6-0.4-0.9C116.5,34.8,116.4,34.6,116.3,34.4z"/>
	<path class="st1" d="M127.7,33.9c-1.1,0-1.9,0.3-2.4,0.9c-0.5,0.6-0.7,1.4-0.7,2.5c0,0.5,0.1,1,0.2,1.4c0.1,0.4,0.3,0.8,0.5,1.1
		c0.2,0.3,0.5,0.5,0.9,0.7c0.4,0.2,0.8,0.2,1.3,0.2c0.3,0,0.5,0,0.7,0c0.2,0,0.3,0,0.5-0.1V37h2.3v5.2c-0.3,0.1-0.7,0.2-1.4,0.4
		c-0.6,0.1-1.4,0.2-2.3,0.2c-0.8,0-1.5-0.1-2.1-0.4c-0.6-0.2-1.2-0.6-1.6-1.1c-0.5-0.5-0.8-1-1-1.7c-0.2-0.7-0.4-1.4-0.4-2.3
		c0-0.9,0.1-1.6,0.4-2.3c0.3-0.7,0.6-1.2,1.1-1.7c0.5-0.5,1-0.8,1.7-1.1c0.6-0.2,1.3-0.4,2-0.4c0.5,0,0.9,0,1.3,0.1
		c0.4,0.1,0.7,0.1,1,0.2c0.3,0.1,0.5,0.2,0.7,0.3c0.2,0.1,0.3,0.2,0.4,0.2l-0.7,1.9c-0.3-0.2-0.7-0.3-1.1-0.4
		C128.6,33.9,128.2,33.9,127.7,33.9z"/>
	<path class="st1" d="M137.2,42.7c-0.7,0-1.4-0.1-1.9-0.3c-0.5-0.2-1-0.5-1.3-0.9c-0.3-0.4-0.6-0.8-0.8-1.3
		c-0.2-0.5-0.2-1.1-0.2-1.7v-6.5h2.3v6.3c0,0.4,0,0.8,0.1,1.1c0.1,0.3,0.2,0.5,0.4,0.7c0.2,0.2,0.4,0.3,0.6,0.4
		c0.2,0.1,0.5,0.1,0.8,0.1c0.6,0,1-0.2,1.4-0.5c0.4-0.4,0.5-0.9,0.5-1.8v-6.3h2.3v6.5c0,0.6-0.1,1.2-0.3,1.7
		c-0.2,0.5-0.4,0.9-0.8,1.3c-0.4,0.4-0.8,0.6-1.3,0.8C138.6,42.6,138,42.7,137.2,42.7z"/>
	<path class="st1" d="M150.5,42.5c-0.1-0.4-0.2-0.7-0.4-1.1c-0.1-0.4-0.3-0.8-0.4-1.1h-4.1c-0.1,0.4-0.3,0.8-0.4,1.1
		c-0.1,0.4-0.3,0.8-0.4,1.1h-2.4c0.4-1.1,0.8-2.2,1.1-3.1c0.4-1,0.7-1.8,1-2.7c0.3-0.8,0.7-1.6,1-2.4c0.3-0.8,0.7-1.5,1-2.2h2.2
		c0.3,0.7,0.7,1.5,1,2.2c0.3,0.8,0.7,1.6,1,2.4c0.3,0.8,0.7,1.7,1,2.7c0.4,1,0.7,2,1.1,3.1H150.5z M147.7,34.4
		c-0.1,0.2-0.1,0.4-0.2,0.6c-0.1,0.3-0.2,0.6-0.3,0.9c-0.1,0.3-0.3,0.7-0.4,1.1c-0.2,0.4-0.3,0.8-0.5,1.3h3
		c-0.2-0.5-0.3-0.9-0.5-1.3c-0.1-0.4-0.3-0.8-0.4-1.1c-0.1-0.3-0.3-0.6-0.4-0.9C147.8,34.8,147.7,34.6,147.7,34.4z"/>
	<path class="st1" d="M159.2,42.7c0,0.1-0.1,0.2-0.1,0.2c0,0.1-0.1,0.1-0.1,0.2c0.3,0.2,0.5,0.4,0.7,0.6c0.1,0.2,0.2,0.4,0.2,0.7
		c0,0.5-0.2,0.8-0.6,1.1c-0.4,0.3-0.9,0.4-1.5,0.4c-0.2,0-0.4,0-0.7-0.1c-0.2,0-0.4-0.1-0.7-0.1l0.3-1.3c0.1,0,0.2,0.1,0.4,0.1
		c0.2,0,0.4,0.1,0.5,0.1c0.1,0,0.3,0,0.4-0.1c0.1-0.1,0.2-0.2,0.2-0.3c0-0.1,0-0.2-0.1-0.3c-0.1-0.1-0.3-0.2-0.5-0.2l-0.2,0
		c0-0.1,0.1-0.3,0.2-0.4c0.1-0.2,0.1-0.3,0.2-0.4c-1.4-0.2-2.5-0.7-3.2-1.6c-0.7-0.9-1.1-2.2-1.1-3.7c0-0.9,0.1-1.6,0.4-2.3
		c0.3-0.7,0.6-1.2,1.1-1.7c0.5-0.5,1-0.8,1.7-1.1c0.7-0.2,1.4-0.4,2.1-0.4c0.4,0,0.8,0,1.2,0.1c0.4,0.1,0.7,0.1,0.9,0.2
		c0.3,0.1,0.5,0.2,0.7,0.3c0.2,0.1,0.3,0.2,0.4,0.2l-0.7,1.9c-0.3-0.2-0.7-0.3-1.1-0.4c-0.4-0.1-0.9-0.2-1.5-0.2
		c-0.4,0-0.7,0.1-1.1,0.2c-0.3,0.1-0.7,0.3-0.9,0.6c-0.3,0.3-0.5,0.6-0.6,1c-0.2,0.4-0.2,0.9-0.2,1.5c0,0.5,0.1,0.9,0.2,1.3
		c0.1,0.4,0.3,0.8,0.5,1.1c0.2,0.3,0.5,0.5,0.9,0.7c0.4,0.2,0.8,0.3,1.4,0.3c0.3,0,0.6,0,0.9-0.1c0.3,0,0.5-0.1,0.7-0.1
		c0.2-0.1,0.4-0.1,0.6-0.2c0.2-0.1,0.3-0.1,0.4-0.2l0.6,1.9c-0.3,0.2-0.7,0.3-1.2,0.5C160.5,42.5,159.9,42.6,159.2,42.7z"/>
	<path class="st1" d="M171.1,42.5c-0.1-0.4-0.2-0.7-0.4-1.1c-0.1-0.4-0.3-0.8-0.4-1.1h-4.1c-0.1,0.4-0.3,0.8-0.4,1.1
		c-0.1,0.4-0.3,0.8-0.4,1.1h-2.4c0.4-1.1,0.8-2.2,1.1-3.1c0.4-1,0.7-1.8,1-2.7c0.3-0.8,0.7-1.6,1-2.4c0.3-0.8,0.7-1.5,1-2.2h2.2
		c0.3,0.7,0.7,1.5,1,2.2c0.3,0.8,0.7,1.6,1,2.4c0.3,0.8,0.7,1.7,1,2.7c0.4,1,0.7,2,1.1,3.1H171.1z M171.1,29.4
		c-0.1,0.1-0.1,0.3-0.2,0.5s-0.2,0.3-0.4,0.5c-0.2,0.2-0.3,0.3-0.5,0.4c-0.2,0.1-0.4,0.1-0.6,0.1c-0.2,0-0.3,0-0.5-0.1
		c-0.2-0.1-0.3-0.1-0.5-0.2c-0.1-0.1-0.3-0.1-0.5-0.2c-0.2-0.1-0.3-0.1-0.5-0.1c-0.2,0-0.4,0.1-0.5,0.2c-0.1,0.1-0.2,0.3-0.3,0.5
		l-1.1-0.7c0.1-0.1,0.1-0.3,0.2-0.5c0.1-0.2,0.2-0.3,0.4-0.5c0.2-0.2,0.3-0.3,0.5-0.4c0.2-0.1,0.4-0.1,0.6-0.1c0.2,0,0.3,0,0.5,0.1
		s0.3,0.1,0.5,0.2c0.2,0.1,0.3,0.1,0.4,0.2c0.1,0.1,0.3,0.1,0.5,0.1c0.2,0,0.4-0.1,0.5-0.2c0.1-0.1,0.2-0.3,0.3-0.5L171.1,29.4z
		 M168.3,34.4c-0.1,0.2-0.1,0.4-0.2,0.6c-0.1,0.3-0.2,0.6-0.3,0.9c-0.1,0.3-0.3,0.7-0.4,1.1c-0.2,0.4-0.3,0.8-0.5,1.3h3
		c-0.2-0.5-0.3-0.9-0.5-1.3c-0.1-0.4-0.3-0.8-0.4-1.1s-0.3-0.6-0.4-0.9C168.4,34.8,168.3,34.6,168.3,34.4z"/>
	<path class="st1" d="M184.5,37.3c0,0.9-0.1,1.7-0.4,2.4s-0.6,1.2-1.1,1.7c-0.5,0.5-1,0.8-1.6,1c-0.6,0.2-1.3,0.3-2.1,0.3
		c-0.7,0-1.4-0.1-2-0.3c-0.6-0.2-1.2-0.6-1.7-1c-0.5-0.5-0.8-1-1.1-1.7c-0.3-0.7-0.4-1.5-0.4-2.4c0-0.9,0.1-1.7,0.4-2.4
		c0.3-0.7,0.7-1.2,1.1-1.7c0.5-0.5,1-0.8,1.7-1c0.6-0.2,1.3-0.3,2-0.3c0.7,0,1.4,0.1,2,0.3c0.6,0.2,1.2,0.6,1.7,1
		c0.5,0.5,0.8,1,1.1,1.7C184.4,35.6,184.5,36.4,184.5,37.3z M176.5,37.3c0,0.5,0.1,1,0.2,1.4c0.1,0.4,0.3,0.8,0.5,1.1
		c0.2,0.3,0.5,0.5,0.9,0.7c0.3,0.2,0.7,0.2,1.2,0.2c0.4,0,0.8-0.1,1.2-0.2c0.3-0.2,0.6-0.4,0.9-0.7c0.2-0.3,0.4-0.6,0.5-1.1
		c0.1-0.4,0.2-0.9,0.2-1.4c0-0.5-0.1-1-0.2-1.4c-0.1-0.4-0.3-0.8-0.5-1.1c-0.2-0.3-0.5-0.5-0.9-0.7c-0.3-0.2-0.7-0.2-1.2-0.2
		c-0.4,0-0.8,0.1-1.2,0.2c-0.3,0.2-0.6,0.4-0.9,0.7c-0.2,0.3-0.4,0.7-0.5,1.1C176.6,36.3,176.5,36.8,176.5,37.3z"/>
</g>
</svg>
