<?xml version="1.0" encoding="utf-8"?>
<!-- Generator: Adobe Illustrator 25.0.0, SVG Export Plug-In . SVG Version: 6.00 Build 0)  -->
<svg version="1.1" id="Camada_1" xmlns="http://www.w3.org/2000/svg" xmlns:xlink="http://www.w3.org/1999/xlink" x="0px" y="0px"
	 viewBox="0 0 185.5 59.6" style="enable-background:new 0 0 185.5 59.6;" xml:space="preserve">
<style type="text/css">
	.st0{fill:#FFB900;}
	.st1{fill:#072E53;}
</style>
<g>
	<path class="st0" d="M51.6,18.8l-24.5-8.6c-0.3-0.1-0.7-0.1-1,0L1.5,18.8c-0.6,0.2-1,0.8-1,1.4s0.4,1.2,1,1.4L26,30.3
		c0.2,0.1,0.3,0.1,0.5,0.1s0.3,0,0.5-0.1l24.5-8.7c0.6-0.2,1-0.8,1-1.4C52.6,19.6,52.2,19,51.6,18.8z"/>
	<path class="st0" d="M48.9,39.1V25.8l-3.1,1.1v12.2c-0.9,0.5-1.5,1.5-1.5,2.7c0,1.1,0.6,2.1,1.5,2.7V52c0,0.8,0.7,1.5,1.5,1.5
		s1.5-0.7,1.5-1.5v-7.5c0.9-0.5,1.5-1.5,1.5-2.7C50.5,40.7,49.8,39.7,48.9,39.1z"/>
	<path class="st0" d="M26.6,33.5c-0.5,0-1-0.1-1.5-0.3l-13.8-4.9V35c0,1.6,1.7,3,5.1,4.1c2.9,1,6.6,1.5,10.2,1.5s7.3-0.5,10.2-1.5
		c3.4-1.1,5.1-2.5,5.1-4.1v-6.7l-13.8,4.9C27.6,33.4,27.1,33.5,26.6,33.5z"/>
</g>
<g>
	<path class="st1" d="M57.5,26.9V13.3h9.1v2.6h-6v2.8H66v2.6h-5.4v5.6H57.5z"/>
	<path class="st1" d="M81.6,20.1c0,1.2-0.2,2.2-0.5,3.1c-0.3,0.9-0.8,1.6-1.4,2.2c-0.6,0.6-1.3,1-2.1,1.3s-1.7,0.5-2.7,0.5
		c-0.9,0-1.8-0.2-2.6-0.5c-0.8-0.3-1.5-0.7-2.2-1.3c-0.6-0.6-1.1-1.3-1.5-2.2c-0.4-0.9-0.5-1.9-0.5-3.1c0-1.2,0.2-2.2,0.5-3.1
		c0.4-0.9,0.9-1.6,1.5-2.2c0.6-0.6,1.3-1.1,2.2-1.4c0.8-0.3,1.7-0.5,2.6-0.5c0.9,0,1.8,0.2,2.6,0.5s1.5,0.8,2.2,1.4
		c0.6,0.6,1.1,1.3,1.5,2.2C81.4,17.9,81.6,18.9,81.6,20.1z M71.2,20.1c0,0.7,0.1,1.3,0.2,1.8c0.2,0.5,0.4,1,0.7,1.4
		c0.3,0.4,0.7,0.7,1.1,0.9c0.4,0.2,1,0.3,1.5,0.3c0.6,0,1.1-0.1,1.5-0.3c0.5-0.2,0.8-0.5,1.1-0.9c0.3-0.4,0.5-0.8,0.7-1.4
		c0.2-0.5,0.2-1.1,0.2-1.8c0-0.7-0.1-1.3-0.2-1.8s-0.4-1-0.7-1.4c-0.3-0.4-0.7-0.7-1.1-0.9c-0.5-0.2-1-0.3-1.5-0.3
		c-0.6,0-1.1,0.1-1.5,0.3c-0.4,0.2-0.8,0.5-1.1,0.9c-0.3,0.4-0.5,0.9-0.7,1.4C71.3,18.9,71.2,19.5,71.2,20.1z"/>
	<path class="st1" d="M88.1,13.2c2,0,3.6,0.4,4.7,1.1c1.1,0.7,1.6,1.9,1.6,3.4c0,1-0.2,1.7-0.7,2.3c-0.4,0.6-1.1,1.1-1.9,1.4
		c0.3,0.3,0.6,0.7,0.9,1.2c0.3,0.4,0.6,0.9,0.9,1.4c0.3,0.5,0.6,1,0.9,1.5c0.3,0.5,0.5,1,0.8,1.5h-3.4c-0.2-0.4-0.5-0.9-0.8-1.4
		c-0.3-0.5-0.5-0.9-0.8-1.3c-0.3-0.4-0.5-0.8-0.8-1.2c-0.3-0.4-0.5-0.7-0.8-1h-1.5v5h-3.1V13.5c0.7-0.1,1.4-0.2,2.1-0.3
		C86.9,13.2,87.6,13.2,88.1,13.2z M88.3,15.8c-0.2,0-0.4,0-0.6,0c-0.2,0-0.3,0-0.5,0v3.7h0.9c1.2,0,2-0.1,2.5-0.4
		c0.5-0.3,0.7-0.8,0.7-1.5c0-0.7-0.3-1.1-0.8-1.4C90,15.9,89.3,15.8,88.3,15.8z"/>
	<path class="st1" d="M100.9,13.3c0.2,0.4,0.5,1,0.8,1.6c0.3,0.6,0.6,1.3,1,2.1c0.3,0.7,0.7,1.5,1,2.3c0.3,0.8,0.6,1.5,0.9,2.2
		c0.3-0.7,0.6-1.4,0.9-2.2c0.3-0.8,0.7-1.5,1-2.3c0.3-0.7,0.7-1.4,1-2.1c0.3-0.6,0.6-1.2,0.8-1.6h2.8c0.1,0.9,0.2,1.9,0.4,3
		s0.2,2.3,0.3,3.5c0.1,1.2,0.2,2.4,0.2,3.6c0.1,1.2,0.1,2.4,0.2,3.4h-3c0-1.3-0.1-2.8-0.2-4.3c-0.1-1.6-0.2-3.1-0.3-4.7
		c-0.2,0.5-0.5,1.2-0.8,1.8c-0.3,0.7-0.6,1.3-0.9,2c-0.3,0.7-0.6,1.3-0.8,1.9c-0.3,0.6-0.5,1.1-0.7,1.6h-2.1c-0.2-0.4-0.4-1-0.7-1.6
		c-0.3-0.6-0.5-1.2-0.8-1.9c-0.3-0.7-0.6-1.3-0.9-2c-0.3-0.7-0.6-1.3-0.8-1.8c-0.1,1.6-0.2,3.2-0.3,4.7c-0.1,1.6-0.1,3-0.2,4.3h-3
		c0.1-1.1,0.1-2.2,0.2-3.4s0.2-2.4,0.2-3.6c0.1-1.2,0.2-2.4,0.3-3.5c0.1-1.1,0.2-2.1,0.4-3H100.9z"/>
	<path class="st1" d="M124,26.9c-0.2-0.5-0.3-1-0.5-1.5c-0.2-0.5-0.3-1-0.5-1.5h-5.3c-0.2,0.5-0.3,1-0.5,1.5c-0.2,0.5-0.3,1-0.5,1.5
		h-3.2c0.5-1.5,1-2.8,1.5-4.1c0.5-1.2,0.9-2.4,1.3-3.5c0.4-1.1,0.9-2.1,1.3-3.1c0.4-1,0.9-2,1.3-2.9h2.9c0.4,0.9,0.9,1.9,1.3,2.9
		c0.4,1,0.9,2,1.3,3.1c0.4,1.1,0.9,2.3,1.4,3.5s0.9,2.6,1.5,4.1H124z M120.3,16.4c-0.1,0.2-0.2,0.5-0.3,0.8
		c-0.1,0.3-0.3,0.7-0.4,1.2c-0.2,0.4-0.4,0.9-0.6,1.5c-0.2,0.5-0.4,1.1-0.6,1.7h3.9c-0.2-0.6-0.4-1.2-0.6-1.7
		c-0.2-0.5-0.4-1-0.6-1.5c-0.2-0.4-0.3-0.8-0.5-1.2C120.5,16.9,120.4,16.6,120.3,16.4z"/>
	<path class="st1" d="M135.4,27.2c-0.1,0.1-0.1,0.2-0.1,0.3c0,0.1-0.1,0.2-0.1,0.2c0.4,0.2,0.7,0.5,0.9,0.7c0.2,0.3,0.2,0.6,0.2,0.9
		c0,0.6-0.2,1.1-0.7,1.4c-0.5,0.3-1.2,0.5-2,0.5c-0.3,0-0.6,0-0.9-0.1c-0.3,0-0.6-0.1-0.9-0.2l0.4-1.7c0.1,0,0.3,0.1,0.5,0.1
		c0.2,0.1,0.5,0.1,0.7,0.1c0.2,0,0.3,0,0.5-0.1c0.1-0.1,0.2-0.2,0.2-0.4c0-0.2,0-0.3-0.2-0.4c-0.1-0.1-0.4-0.2-0.7-0.3l-0.2-0.1
		c0.1-0.2,0.1-0.3,0.2-0.5c0.1-0.2,0.2-0.4,0.2-0.6c-1.8-0.2-3.2-0.9-4.2-2.1s-1.4-2.8-1.4-4.9c0-1.1,0.2-2.1,0.5-3
		c0.4-0.9,0.8-1.6,1.5-2.2c0.6-0.6,1.3-1.1,2.2-1.4c0.8-0.3,1.8-0.5,2.8-0.5c0.6,0,1.1,0,1.6,0.1c0.5,0.1,0.9,0.2,1.2,0.3
		c0.4,0.1,0.6,0.2,0.9,0.3c0.2,0.1,0.4,0.2,0.5,0.3l-0.9,2.5c-0.4-0.2-0.9-0.4-1.5-0.6c-0.6-0.2-1.2-0.2-1.9-0.2
		c-0.5,0-0.9,0.1-1.4,0.2c-0.5,0.2-0.8,0.4-1.2,0.8c-0.3,0.3-0.6,0.8-0.8,1.3s-0.3,1.2-0.3,2c0,0.6,0.1,1.2,0.2,1.8
		c0.1,0.5,0.4,1,0.7,1.4c0.3,0.4,0.7,0.7,1.2,0.9c0.5,0.2,1.1,0.3,1.8,0.3c0.4,0,0.8,0,1.2-0.1c0.4-0.1,0.7-0.1,0.9-0.2
		c0.3-0.1,0.5-0.2,0.7-0.2c0.2-0.1,0.4-0.2,0.6-0.3l0.8,2.5c-0.4,0.2-0.9,0.4-1.6,0.6C137,27,136.3,27.1,135.4,27.2z"/>
	<path class="st1" d="M150.9,26.9c-0.2-0.5-0.3-1-0.5-1.5c-0.2-0.5-0.3-1-0.5-1.5h-5.3c-0.2,0.5-0.3,1-0.5,1.5
		c-0.2,0.5-0.3,1-0.5,1.5h-3.2c0.5-1.5,1-2.8,1.5-4.1c0.5-1.2,0.9-2.4,1.3-3.5c0.4-1.1,0.9-2.1,1.3-3.1c0.4-1,0.9-2,1.3-2.9h2.9
		c0.4,0.9,0.9,1.9,1.3,2.9c0.4,1,0.9,2,1.3,3.1c0.4,1.1,0.9,2.3,1.4,3.5c0.5,1.2,0.9,2.6,1.5,4.1H150.9z M151,9.8
		c-0.1,0.2-0.2,0.4-0.3,0.6c-0.1,0.2-0.3,0.5-0.5,0.7c-0.2,0.2-0.4,0.4-0.7,0.5c-0.2,0.1-0.5,0.2-0.8,0.2c-0.2,0-0.5,0-0.7-0.1
		c-0.2-0.1-0.4-0.2-0.6-0.2c-0.2-0.1-0.4-0.2-0.6-0.2c-0.2-0.1-0.4-0.1-0.6-0.1c-0.3,0-0.5,0.1-0.6,0.3c-0.2,0.2-0.3,0.4-0.4,0.6
		l-1.4-0.9c0.1-0.2,0.2-0.4,0.3-0.6c0.1-0.2,0.3-0.5,0.5-0.7c0.2-0.2,0.4-0.4,0.7-0.5c0.2-0.1,0.5-0.2,0.8-0.2c0.2,0,0.5,0,0.7,0.1
		c0.2,0.1,0.4,0.2,0.6,0.2c0.2,0.1,0.4,0.2,0.6,0.2c0.2,0.1,0.4,0.1,0.6,0.1c0.3,0,0.5-0.1,0.6-0.3c0.2-0.2,0.3-0.4,0.4-0.6L151,9.8
		z M147.2,16.4c-0.1,0.2-0.2,0.5-0.3,0.8c-0.1,0.3-0.3,0.7-0.4,1.2c-0.2,0.4-0.4,0.9-0.6,1.5c-0.2,0.5-0.4,1.1-0.6,1.7h3.9
		c-0.2-0.6-0.4-1.2-0.6-1.7c-0.2-0.5-0.4-1-0.6-1.5c-0.2-0.4-0.3-0.8-0.5-1.2C147.4,16.9,147.3,16.6,147.2,16.4z"/>
	<path class="st1" d="M168.4,20.1c0,1.2-0.2,2.2-0.5,3.1c-0.3,0.9-0.8,1.6-1.4,2.2c-0.6,0.6-1.3,1-2.1,1.3s-1.7,0.5-2.7,0.5
		c-0.9,0-1.8-0.2-2.6-0.5c-0.8-0.3-1.5-0.7-2.2-1.3c-0.6-0.6-1.1-1.3-1.5-2.2s-0.5-1.9-0.5-3.1c0-1.2,0.2-2.2,0.5-3.1
		c0.4-0.9,0.9-1.6,1.5-2.2c0.6-0.6,1.3-1.1,2.2-1.4s1.7-0.5,2.6-0.5c0.9,0,1.8,0.2,2.6,0.5c0.8,0.3,1.5,0.8,2.2,1.4
		c0.6,0.6,1.1,1.3,1.5,2.2C168.2,17.9,168.4,18.9,168.4,20.1z M158,20.1c0,0.7,0.1,1.3,0.2,1.8c0.2,0.5,0.4,1,0.7,1.4
		c0.3,0.4,0.7,0.7,1.1,0.9c0.4,0.2,1,0.3,1.5,0.3c0.6,0,1.1-0.1,1.5-0.3s0.8-0.5,1.1-0.9c0.3-0.4,0.5-0.8,0.7-1.4
		c0.2-0.5,0.2-1.1,0.2-1.8c0-0.7-0.1-1.3-0.2-1.8s-0.4-1-0.7-1.4c-0.3-0.4-0.7-0.7-1.1-0.9c-0.5-0.2-1-0.3-1.5-0.3
		c-0.6,0-1.1,0.1-1.5,0.3c-0.4,0.2-0.8,0.5-1.1,0.9c-0.3,0.4-0.5,0.9-0.7,1.4C158.1,18.9,158,19.5,158,20.1z"/>
	<path class="st1" d="M61.6,36.7c2,0,3.6,0.4,4.7,1.1c1.1,0.7,1.6,1.9,1.6,3.5c0,1.6-0.5,2.8-1.6,3.5c-1.1,0.7-2.7,1.1-4.7,1.1h-1
		v4.6h-3.1V37.1c0.7-0.1,1.4-0.2,2.1-0.3C60.4,36.7,61.1,36.7,61.6,36.7z M61.8,39.3c-0.2,0-0.4,0-0.7,0c-0.2,0-0.4,0-0.6,0v3.9h1
		c1.1,0,1.9-0.1,2.4-0.4c0.5-0.3,0.8-0.8,0.8-1.6c0-0.4-0.1-0.7-0.2-0.9c-0.1-0.2-0.3-0.4-0.6-0.6c-0.3-0.2-0.6-0.3-0.9-0.3
		C62.7,39.3,62.3,39.3,61.8,39.3z"/>
	<path class="st1" d="M70.2,50.5V36.9h9.2v2.6h-6.1v2.7h5.4v2.5h-5.4v3.3h6.6v2.6H70.2z"/>
	<path class="st1" d="M94,43.7c0,1.2-0.2,2.2-0.5,3.1c-0.4,0.9-0.9,1.6-1.6,2.2c-0.7,0.6-1.5,1-2.5,1.3c-1,0.3-2.1,0.4-3.3,0.4
		c-0.5,0-1.2,0-1.9-0.1c-0.7,0-1.5-0.1-2.2-0.3V37c0.7-0.1,1.4-0.2,2.2-0.3c0.8,0,1.4-0.1,2-0.1c1.2,0,2.2,0.1,3.2,0.4
		c0.9,0.3,1.8,0.7,2.4,1.2c0.7,0.6,1.2,1.3,1.6,2.2C93.8,41.4,94,42.4,94,43.7z M85.1,48c0.1,0,0.3,0,0.5,0c0.2,0,0.4,0,0.7,0
		c1.5,0,2.7-0.4,3.4-1.2c0.7-0.8,1.1-1.8,1.1-3.2c0-1.4-0.4-2.5-1.1-3.2c-0.7-0.7-1.8-1.1-3.4-1.1c-0.2,0-0.4,0-0.6,0
		c-0.2,0-0.4,0-0.6,0V48z"/>
	<path class="st1" d="M105.2,50.5c-0.2-0.5-0.3-1-0.5-1.5c-0.2-0.5-0.3-1-0.5-1.5h-5.3c-0.2,0.5-0.3,1-0.5,1.5
		c-0.2,0.5-0.3,1-0.5,1.5h-3.2c0.5-1.5,1-2.8,1.5-4.1s0.9-2.4,1.3-3.5c0.4-1.1,0.9-2.1,1.3-3.1c0.4-1,0.9-2,1.3-2.9h2.9
		c0.4,0.9,0.9,1.9,1.3,2.9c0.4,1,0.9,2,1.3,3.1c0.4,1.1,0.9,2.3,1.4,3.5s0.9,2.6,1.5,4.1H105.2z M101.5,39.9
		c-0.1,0.2-0.2,0.5-0.3,0.8c-0.1,0.3-0.3,0.7-0.4,1.2c-0.2,0.4-0.4,0.9-0.6,1.5c-0.2,0.5-0.4,1.1-0.6,1.7h3.9
		c-0.2-0.6-0.4-1.2-0.6-1.7c-0.2-0.5-0.4-1-0.6-1.5c-0.2-0.4-0.3-0.8-0.5-1.2C101.7,40.4,101.6,40.1,101.5,39.9z"/>
	<path class="st1" d="M116.3,39.2c-1.4,0-2.5,0.4-3.1,1.2c-0.6,0.8-1,1.9-1,3.2c0,0.7,0.1,1.3,0.2,1.8c0.2,0.5,0.4,1,0.7,1.4
		c0.3,0.4,0.7,0.7,1.2,0.9c0.5,0.2,1,0.3,1.6,0.3c0.3,0,0.6,0,0.9,0c0.2,0,0.5,0,0.6-0.1v-4.7h3.1V50c-0.4,0.1-1,0.3-1.8,0.5
		c-0.8,0.2-1.8,0.2-3,0.2c-1,0-1.9-0.2-2.8-0.5c-0.8-0.3-1.5-0.8-2.1-1.4c-0.6-0.6-1-1.3-1.4-2.2c-0.3-0.9-0.5-1.9-0.5-3
		c0-1.1,0.2-2.1,0.5-3c0.4-0.9,0.8-1.6,1.5-2.2c0.6-0.6,1.3-1.1,2.2-1.4c0.8-0.3,1.7-0.5,2.7-0.5c0.6,0,1.2,0,1.7,0.1
		c0.5,0.1,1,0.2,1.3,0.3c0.4,0.1,0.7,0.2,0.9,0.3c0.2,0.1,0.4,0.2,0.5,0.3l-0.9,2.5c-0.4-0.2-0.9-0.4-1.4-0.6S117,39.2,116.3,39.2z"
		/>
	<path class="st1" d="M136.4,43.7c0,1.2-0.2,2.2-0.5,3.1c-0.3,0.9-0.8,1.6-1.4,2.2c-0.6,0.6-1.3,1-2.1,1.3c-0.8,0.3-1.7,0.5-2.7,0.5
		c-0.9,0-1.8-0.2-2.6-0.5c-0.8-0.3-1.5-0.7-2.2-1.3c-0.6-0.6-1.1-1.3-1.5-2.2s-0.5-1.9-0.5-3.1c0-1.2,0.2-2.2,0.5-3.1
		c0.4-0.9,0.9-1.6,1.5-2.2c0.6-0.6,1.3-1.1,2.2-1.4c0.8-0.3,1.7-0.5,2.6-0.5c0.9,0,1.8,0.2,2.6,0.5c0.8,0.3,1.5,0.8,2.2,1.4
		c0.6,0.6,1.1,1.3,1.5,2.2C136.3,41.5,136.4,42.5,136.4,43.7z M126,43.7c0,0.7,0.1,1.3,0.2,1.8c0.2,0.5,0.4,1,0.7,1.4
		c0.3,0.4,0.7,0.7,1.1,0.9c0.4,0.2,1,0.3,1.5,0.3c0.6,0,1.1-0.1,1.5-0.3c0.5-0.2,0.8-0.5,1.1-0.9c0.3-0.4,0.5-0.8,0.7-1.4
		c0.2-0.5,0.2-1.1,0.2-1.8c0-0.7-0.1-1.3-0.2-1.8c-0.2-0.5-0.4-1-0.7-1.4c-0.3-0.4-0.7-0.7-1.1-0.9s-1-0.3-1.5-0.3
		c-0.6,0-1.1,0.1-1.5,0.3c-0.4,0.2-0.8,0.5-1.1,0.9c-0.3,0.4-0.5,0.9-0.7,1.4C126.1,42.4,126,43,126,43.7z M132,33.3l-3.2,2.7
		l-1.3-1.2l2.8-3.2L132,33.3z"/>
	<path class="st1" d="M145.6,39.2c-1.4,0-2.5,0.4-3.1,1.2c-0.6,0.8-1,1.9-1,3.2c0,0.7,0.1,1.3,0.2,1.8c0.2,0.5,0.4,1,0.7,1.4
		c0.3,0.4,0.7,0.7,1.2,0.9c0.5,0.2,1,0.3,1.6,0.3c0.3,0,0.6,0,0.9,0c0.2,0,0.5,0,0.6-0.1v-4.7h3.1V50c-0.4,0.1-1,0.3-1.8,0.5
		c-0.8,0.2-1.8,0.2-3,0.2c-1,0-1.9-0.2-2.8-0.5c-0.8-0.3-1.5-0.8-2.1-1.4c-0.6-0.6-1-1.3-1.4-2.2c-0.3-0.9-0.5-1.9-0.5-3
		c0-1.1,0.2-2.1,0.5-3c0.4-0.9,0.8-1.6,1.5-2.2c0.6-0.6,1.3-1.1,2.2-1.4c0.8-0.3,1.7-0.5,2.7-0.5c0.6,0,1.2,0,1.7,0.1
		c0.5,0.1,1,0.2,1.3,0.3c0.4,0.1,0.7,0.2,0.9,0.3c0.2,0.1,0.4,0.2,0.5,0.3l-0.9,2.5c-0.4-0.2-0.9-0.4-1.4-0.6
		C146.8,39.3,146.3,39.2,145.6,39.2z"/>
	<path class="st1" d="M152.8,36.9h3.1v13.6h-3.1V36.9z"/>
	<path class="st1" d="M165.2,50.7c-2.2,0-3.9-0.6-5.1-1.8s-1.7-3-1.7-5.2c0-1.1,0.2-2.1,0.5-3s0.8-1.6,1.5-2.2
		c0.6-0.6,1.3-1.1,2.2-1.4c0.8-0.3,1.8-0.5,2.8-0.5c0.6,0,1.1,0,1.6,0.1c0.5,0.1,0.9,0.2,1.2,0.3c0.4,0.1,0.6,0.2,0.9,0.3
		c0.2,0.1,0.4,0.2,0.5,0.3l-0.9,2.5c-0.4-0.2-0.9-0.4-1.5-0.6c-0.6-0.2-1.2-0.2-1.9-0.2c-0.5,0-0.9,0.1-1.4,0.2
		c-0.5,0.2-0.8,0.4-1.2,0.8c-0.3,0.3-0.6,0.8-0.8,1.3s-0.3,1.2-0.3,2c0,0.6,0.1,1.2,0.2,1.8c0.1,0.5,0.4,1,0.7,1.4
		c0.3,0.4,0.7,0.7,1.2,0.9c0.5,0.2,1.1,0.3,1.8,0.3c0.4,0,0.8,0,1.2-0.1c0.4-0.1,0.7-0.1,0.9-0.2c0.3-0.1,0.5-0.2,0.7-0.2
		c0.2-0.1,0.4-0.2,0.6-0.3l0.8,2.5c-0.4,0.3-1,0.5-1.8,0.7C167.1,50.6,166.2,50.7,165.2,50.7z"/>
	<path class="st1" d="M181.3,50.5c-0.2-0.5-0.3-1-0.5-1.5c-0.2-0.5-0.3-1-0.5-1.5H175c-0.2,0.5-0.3,1-0.5,1.5
		c-0.2,0.5-0.3,1-0.5,1.5h-3.2c0.5-1.5,1-2.8,1.5-4.1c0.5-1.2,0.9-2.4,1.3-3.5c0.4-1.1,0.9-2.1,1.3-3.1c0.4-1,0.9-2,1.3-2.9h2.9
		c0.4,0.9,0.9,1.9,1.3,2.9c0.4,1,0.9,2,1.3,3.1c0.4,1.1,0.9,2.3,1.4,3.5c0.5,1.2,0.9,2.6,1.5,4.1H181.3z M177.7,39.9
		c-0.1,0.2-0.2,0.5-0.3,0.8c-0.1,0.3-0.3,0.7-0.4,1.2c-0.2,0.4-0.4,0.9-0.6,1.5c-0.2,0.5-0.4,1.1-0.6,1.7h3.9
		c-0.2-0.6-0.4-1.2-0.6-1.7s-0.4-1-0.6-1.5c-0.2-0.4-0.3-0.8-0.5-1.2C177.9,40.4,177.8,40.1,177.7,39.9z"/>
</g>
</svg>
