<?xml version="1.0" encoding="utf-8"?>
<!-- Generator: Adobe Illustrator 25.0.0, SVG Export Plug-In . SVG Version: 6.00 Build 0)  -->
<svg version="1.1" id="Camada_1" xmlns="http://www.w3.org/2000/svg" xmlns:xlink="http://www.w3.org/1999/xlink" x="0px" y="0px"
	 viewBox="0 0 185.5 59.6" style="enable-background:new 0 0 185.5 59.6;" xml:space="preserve">
<style type="text/css">
	.st0{fill:#FFB900;}
	.st1{fill:#072E53;}
</style>
<g>
	<g>
		<path class="st0" d="M57.1,18.8l-24.5-8.6c-0.3-0.1-0.7-0.1-1,0L7,18.8c-0.6,0.2-1,0.8-1,1.4s0.4,1.2,1,1.4l24.5,8.7
			c0.2,0.1,0.3,0.1,0.5,0.1s0.3,0,0.5-0.1L57,21.6c0.6-0.2,1-0.8,1-1.4C58.1,19.6,57.7,19,57.1,18.8z"/>
		<path class="st0" d="M54.4,39.1V25.8l-3.1,1.1v12.2c-0.9,0.5-1.5,1.5-1.5,2.7c0,1.1,0.6,2.1,1.5,2.7V52c0,0.8,0.7,1.5,1.5,1.5
			s1.5-0.7,1.5-1.5v-7.5c0.9-0.5,1.5-1.5,1.5-2.7C56,40.7,55.3,39.7,54.4,39.1z"/>
		<path class="st0" d="M32.1,33.5c-0.5,0-1-0.1-1.5-0.3l-13.8-4.9V35c0,1.6,1.7,3,5.1,4.1c2.9,1,6.6,1.5,10.2,1.5s7.3-0.5,10.2-1.5
			c3.4-1.1,5.1-2.5,5.1-4.1v-6.7l-13.8,4.9C33.1,33.4,32.6,33.5,32.1,33.5z"/>
	</g>
	<g>
		<path class="st1" d="M71.6,25.1c-2.2,0-3.8-0.6-5-1.8c-1.1-1.2-1.7-2.9-1.7-5.1c0-1.1,0.2-2.1,0.5-3s0.8-1.6,1.4-2.2
			c0.6-0.6,1.3-1,2.2-1.4c0.8-0.3,1.7-0.5,2.7-0.5c0.6,0,1.1,0,1.5,0.1c0.5,0.1,0.9,0.2,1.2,0.3c0.3,0.1,0.6,0.2,0.9,0.3
			c0.2,0.1,0.4,0.2,0.5,0.3L75,14.6c-0.4-0.2-0.9-0.4-1.4-0.6c-0.5-0.2-1.2-0.2-1.9-0.2c-0.5,0-0.9,0.1-1.4,0.2
			c-0.4,0.2-0.8,0.4-1.2,0.7c-0.3,0.3-0.6,0.8-0.8,1.3c-0.2,0.5-0.3,1.2-0.3,2c0,0.6,0.1,1.2,0.2,1.7s0.4,1,0.7,1.4
			c0.3,0.4,0.7,0.7,1.2,0.9c0.5,0.2,1.1,0.3,1.8,0.3c0.4,0,0.8,0,1.2-0.1c0.3-0.1,0.7-0.1,0.9-0.2c0.3-0.1,0.5-0.2,0.7-0.2
			c0.2-0.1,0.4-0.2,0.6-0.3l0.8,2.4c-0.4,0.3-1,0.5-1.8,0.7C73.5,25,72.6,25.1,71.6,25.1z"/>
		<path class="st1" d="M83.2,25.1c-0.9,0-1.7-0.1-2.4-0.4c-0.7-0.3-1.2-0.6-1.7-1.1c-0.4-0.5-0.8-1-1-1.7c-0.2-0.6-0.3-1.4-0.3-2.1
			v-8.3h3v8c0,0.5,0.1,1,0.2,1.4s0.3,0.7,0.5,0.9c0.2,0.2,0.5,0.4,0.8,0.5s0.6,0.2,1,0.2c0.7,0,1.3-0.2,1.8-0.7
			c0.5-0.4,0.7-1.2,0.7-2.3v-8h3v8.3c0,0.8-0.1,1.5-0.3,2.2c-0.2,0.7-0.6,1.2-1,1.7c-0.5,0.5-1,0.8-1.7,1.1
			C84.9,25,84.1,25.1,83.2,25.1z"/>
		<path class="st1" d="M95.5,11.3c2,0,3.5,0.4,4.6,1.1c1.1,0.7,1.6,1.8,1.6,3.3c0,0.9-0.2,1.7-0.6,2.3c-0.4,0.6-1,1-1.9,1.4
			c0.3,0.3,0.6,0.7,0.8,1.1c0.3,0.4,0.6,0.9,0.9,1.3c0.3,0.5,0.6,1,0.8,1.5c0.3,0.5,0.5,1,0.8,1.5h-3.4c-0.2-0.4-0.5-0.9-0.7-1.3
			c-0.3-0.4-0.5-0.9-0.8-1.3s-0.5-0.8-0.8-1.2c-0.3-0.4-0.5-0.7-0.8-1h-1.5v4.9h-3V11.7c0.7-0.1,1.3-0.2,2-0.3
			C94.3,11.3,94.9,11.3,95.5,11.3z M95.6,13.9c-0.2,0-0.4,0-0.6,0s-0.3,0-0.5,0v3.6h0.8c1.1,0,1.9-0.1,2.4-0.4s0.7-0.8,0.7-1.4
			c0-0.7-0.2-1.1-0.7-1.4C97.3,14,96.6,13.9,95.6,13.9z"/>
		<path class="st1" d="M108,22.5c0.4,0,0.8,0,1-0.1c0.3-0.1,0.5-0.2,0.7-0.3c0.2-0.1,0.3-0.3,0.3-0.4c0.1-0.2,0.1-0.4,0.1-0.6
			c0-0.4-0.2-0.8-0.6-1.1c-0.4-0.3-1.1-0.6-2.1-0.9c-0.4-0.2-0.9-0.3-1.3-0.5s-0.8-0.4-1.2-0.8c-0.3-0.3-0.6-0.7-0.8-1.1
			c-0.2-0.4-0.3-1-0.3-1.6s0.1-1.2,0.3-1.7c0.2-0.5,0.6-0.9,1-1.3c0.4-0.3,0.9-0.6,1.5-0.8s1.3-0.3,2-0.3c0.9,0,1.7,0.1,2.3,0.3
			c0.7,0.2,1.2,0.4,1.6,0.6l-0.9,2.4c-0.4-0.2-0.8-0.4-1.2-0.5c-0.5-0.1-1-0.2-1.6-0.2c-0.7,0-1.2,0.1-1.5,0.3s-0.5,0.5-0.5,0.9
			c0,0.2,0.1,0.4,0.2,0.6c0.1,0.2,0.3,0.3,0.5,0.5c0.2,0.1,0.5,0.3,0.7,0.4c0.3,0.1,0.6,0.2,0.9,0.3c0.7,0.3,1.3,0.5,1.8,0.8
			s0.9,0.5,1.3,0.9c0.3,0.3,0.6,0.7,0.8,1.2c0.2,0.4,0.2,1,0.2,1.6c0,1.2-0.4,2.2-1.3,2.9c-0.9,0.7-2.2,1-3.9,1
			c-0.6,0-1.1,0-1.6-0.1s-0.9-0.2-1.3-0.3c-0.4-0.1-0.7-0.2-0.9-0.3c-0.3-0.1-0.5-0.2-0.7-0.3l0.8-2.4c0.4,0.2,0.9,0.4,1.5,0.6
			C106.5,22.4,107.2,22.5,108,22.5z"/>
		<path class="st1" d="M128.3,18.1c0,1.1-0.2,2.1-0.5,3s-0.8,1.6-1.4,2.2s-1.3,1-2.1,1.3c-0.8,0.3-1.7,0.4-2.6,0.4s-1.8-0.1-2.6-0.4
			c-0.8-0.3-1.5-0.7-2.1-1.3c-0.6-0.6-1.1-1.3-1.4-2.2c-0.3-0.9-0.5-1.9-0.5-3s0.2-2.1,0.5-3c0.4-0.9,0.8-1.6,1.5-2.2
			c0.6-0.6,1.3-1,2.1-1.3c0.8-0.3,1.6-0.4,2.5-0.4s1.8,0.1,2.6,0.4s1.5,0.7,2.1,1.3s1.1,1.3,1.4,2.2S128.3,17,128.3,18.1z
			 M118.1,18.1c0,0.7,0.1,1.2,0.2,1.8c0.2,0.5,0.4,1,0.7,1.4c0.3,0.4,0.7,0.7,1.1,0.9c0.4,0.2,0.9,0.3,1.5,0.3s1-0.1,1.5-0.3
			c0.4-0.2,0.8-0.5,1.1-0.9c0.3-0.4,0.5-0.8,0.7-1.4c0.2-0.5,0.2-1.1,0.2-1.8c0-0.7-0.1-1.2-0.2-1.8s-0.4-1-0.7-1.4
			c-0.3-0.4-0.7-0.7-1.1-0.9s-0.9-0.3-1.5-0.3s-1.1,0.1-1.5,0.3s-0.8,0.5-1.1,0.9c-0.3,0.4-0.5,0.8-0.7,1.4
			C118.2,16.9,118.1,17.5,118.1,18.1z"/>
		<path class="st1" d="M147.1,18.1c0,1.2-0.2,2.2-0.5,3c-0.4,0.9-0.9,1.6-1.5,2.1c-0.7,0.6-1.5,1-2.4,1.3s-2,0.4-3.2,0.4
			c-0.5,0-1.2,0-1.9-0.1c-0.7,0-1.4-0.1-2.1-0.3v-13c0.7-0.1,1.4-0.2,2.2-0.3c0.8,0,1.4-0.1,1.9-0.1c1.1,0,2.2,0.1,3.1,0.4
			c0.9,0.3,1.7,0.7,2.4,1.2c0.7,0.6,1.2,1.3,1.5,2.1C146.9,15.9,147.1,16.9,147.1,18.1z M138.4,22.4c0.1,0,0.3,0,0.5,0s0.4,0,0.7,0
			c1.5,0,2.6-0.4,3.3-1.1c0.7-0.8,1.1-1.8,1.1-3.1c0-1.4-0.3-2.5-1-3.2s-1.8-1.1-3.3-1.1c-0.2,0-0.4,0-0.6,0c-0.2,0-0.4,0-0.6,0
			L138.4,22.4L138.4,22.4z"/>
		<path class="st1" d="M149.6,24.8V11.5h9V14h-6v2.6h5.3v2.5h-5.3v3.2h6.4v2.5C159,24.8,149.6,24.8,149.6,24.8z"/>
		<path class="st1" d="M72,36.9c-1.4,0-2.4,0.4-3,1.2s-0.9,1.8-0.9,3.2c0,0.7,0.1,1.2,0.2,1.8c0.2,0.5,0.4,1,0.7,1.4
			c0.3,0.4,0.7,0.7,1.2,0.9s1,0.3,1.6,0.3c0.3,0,0.6,0,0.9,0c0.2,0,0.4,0,0.6-0.1V41h3v6.6c-0.4,0.1-0.9,0.3-1.7,0.5
			c-0.8,0.2-1.8,0.2-2.9,0.2c-1,0-1.9-0.2-2.7-0.5s-1.5-0.8-2.1-1.3c-0.6-0.6-1-1.3-1.3-2.2s-0.5-1.8-0.5-2.9c0-1.1,0.2-2.1,0.5-3
			s0.8-1.6,1.4-2.2c0.6-0.6,1.3-1,2.1-1.4c0.8-0.3,1.7-0.5,2.6-0.5c0.6,0,1.2,0,1.7,0.1s0.9,0.2,1.3,0.3s0.7,0.2,0.9,0.3
			c0.2,0.1,0.4,0.2,0.5,0.3l-0.9,2.4c-0.4-0.2-0.9-0.4-1.4-0.6C73.2,37,72.6,36.9,72,36.9z"/>
		<path class="st1" d="M82.9,34.4c2,0,3.5,0.4,4.6,1.1c1.1,0.7,1.6,1.8,1.6,3.3c0,0.9-0.2,1.7-0.6,2.3s-1,1-1.9,1.4
			c0.3,0.3,0.6,0.7,0.8,1.1c0.3,0.4,0.6,0.9,0.9,1.3c0.3,0.5,0.6,1,0.8,1.5s0.5,1,0.8,1.5h-3.4c-0.2-0.4-0.5-0.9-0.7-1.3
			c-0.3-0.4-0.5-0.9-0.8-1.3c-0.3-0.4-0.5-0.8-0.8-1.2s-0.5-0.7-0.8-1H82V48h-3V34.8c0.7-0.1,1.3-0.2,2-0.3S82.4,34.4,82.9,34.4z
			 M83.1,37c-0.2,0-0.4,0-0.6,0s-0.3,0-0.5,0v3.6h0.8c1.1,0,1.9-0.1,2.4-0.4c0.5-0.3,0.7-0.8,0.7-1.4c0-0.7-0.2-1.1-0.7-1.4
			C84.8,37.1,84,37,83.1,37z"/>
		<path class="st1" d="M101.4,47.9c-0.1-0.5-0.3-0.9-0.5-1.4s-0.3-1-0.5-1.5h-5.2c-0.2,0.5-0.3,1-0.5,1.5s-0.3,1-0.5,1.4h-3.1
			c0.5-1.4,1-2.8,1.4-4c0.5-1.2,0.9-2.4,1.3-3.4c0.4-1.1,0.9-2.1,1.3-3.1s0.9-1.9,1.3-2.8h2.8c0.4,0.9,0.9,1.9,1.3,2.8
			c0.4,1,0.9,2,1.3,3.1s0.9,2.2,1.3,3.4c0.5,1.2,0.9,2.5,1.4,4H101.4z M97.8,37.6c-0.1,0.2-0.2,0.5-0.3,0.8s-0.3,0.7-0.4,1.2
			c-0.2,0.4-0.3,0.9-0.6,1.4c-0.2,0.5-0.4,1.1-0.6,1.7h3.8c-0.2-0.6-0.4-1.1-0.6-1.7c-0.2-0.5-0.4-1-0.5-1.4
			c-0.2-0.4-0.3-0.8-0.5-1.2C98,38,97.9,37.8,97.8,37.6z"/>
		<path class="st1" d="M118,41.2c0,1.2-0.2,2.2-0.5,3c-0.4,0.9-0.9,1.6-1.5,2.1c-0.7,0.6-1.5,1-2.4,1.3s-2,0.4-3.2,0.4
			c-0.5,0-1.2,0-1.9-0.1c-0.7,0-1.4-0.1-2.1-0.3v-13c0.7-0.1,1.4-0.2,2.2-0.3c0.8,0,1.4-0.1,1.9-0.1c1.1,0,2.2,0.1,3.1,0.4
			c0.9,0.3,1.7,0.7,2.4,1.2c0.7,0.6,1.2,1.3,1.5,2.1C117.8,39,118,40,118,41.2z M109.3,45.5c0.1,0,0.3,0,0.5,0s0.4,0,0.7,0
			c1.5,0,2.6-0.4,3.3-1.1c0.7-0.8,1.1-1.8,1.1-3.1c0-1.4-0.3-2.5-1-3.2s-1.8-1.1-3.3-1.1c-0.2,0-0.4,0-0.6,0s-0.4,0-0.6,0
			L109.3,45.5L109.3,45.5z"/>
		<path class="st1" d="M125.7,48.2c-0.9,0-1.7-0.1-2.4-0.4c-0.7-0.3-1.2-0.6-1.7-1.1c-0.4-0.5-0.8-1-1-1.7c-0.2-0.6-0.3-1.4-0.3-2.1
			v-8.3h3v8c0,0.5,0.1,1,0.2,1.4s0.3,0.7,0.5,0.9s0.5,0.4,0.8,0.5s0.6,0.2,1,0.2c0.7,0,1.3-0.2,1.8-0.7c0.5-0.4,0.7-1.2,0.7-2.3v-8
			h3v8.3c0,0.8-0.1,1.5-0.3,2.2s-0.6,1.2-1,1.7c-0.5,0.5-1,0.8-1.7,1.1C127.5,48.1,126.7,48.2,125.7,48.2z"/>
		<path class="st1" d="M142.7,47.9c-0.1-0.5-0.3-0.9-0.5-1.4s-0.3-1-0.5-1.5h-5.2c-0.2,0.5-0.3,1-0.5,1.5s-0.3,1-0.5,1.4h-3.1
			c0.5-1.4,1-2.8,1.4-4c0.5-1.2,0.9-2.4,1.3-3.4c0.4-1.1,0.9-2.1,1.3-3.1c0.4-1,0.9-1.9,1.3-2.8h2.8c0.4,0.9,0.9,1.9,1.3,2.8
			c0.4,1,0.9,2,1.3,3.1c0.4,1.1,0.9,2.2,1.3,3.4c0.5,1.2,0.9,2.5,1.4,4H142.7z M139.1,37.6c-0.1,0.2-0.2,0.5-0.3,0.8
			s-0.3,0.7-0.4,1.2c-0.2,0.4-0.3,0.9-0.6,1.4c-0.2,0.5-0.4,1.1-0.6,1.7h3.8c-0.2-0.6-0.4-1.1-0.6-1.7c-0.2-0.5-0.4-1-0.5-1.4
			c-0.2-0.4-0.3-0.8-0.5-1.2S139.1,37.8,139.1,37.6z"/>
		<path class="st1" d="M153.9,48.2c-0.1,0.1-0.1,0.2-0.1,0.3s-0.1,0.2-0.1,0.2c0.4,0.2,0.7,0.4,0.8,0.7c0.2,0.3,0.2,0.6,0.2,0.9
			c0,0.6-0.2,1.1-0.7,1.4c-0.5,0.3-1.1,0.5-1.9,0.5c-0.3,0-0.6,0-0.8-0.1c-0.3,0-0.6-0.1-0.8-0.2l0.3-1.7c0.1,0,0.3,0.1,0.5,0.1
			c0.2,0.1,0.5,0.1,0.7,0.1s0.3,0,0.5-0.1c0.1-0.1,0.2-0.2,0.2-0.4s0-0.3-0.2-0.4c-0.1-0.1-0.3-0.2-0.6-0.3l-0.2-0.1
			c0.1-0.2,0.1-0.3,0.2-0.5s0.2-0.4,0.2-0.6c-1.8-0.2-3.2-0.9-4.1-2.1c-0.9-1.2-1.4-2.8-1.4-4.8c0-1.1,0.2-2.1,0.5-3
			s0.8-1.6,1.4-2.2c0.6-0.6,1.3-1,2.2-1.4c0.8-0.3,1.7-0.5,2.7-0.5c0.6,0,1.1,0,1.5,0.1c0.5,0.1,0.9,0.2,1.2,0.3s0.6,0.2,0.9,0.3
			c0.2,0.1,0.4,0.2,0.5,0.3l-0.9,2.4c-0.4-0.2-0.9-0.4-1.4-0.6s-1.2-0.2-1.9-0.2c-0.5,0-0.9,0.1-1.4,0.2c-0.4,0.2-0.8,0.4-1.2,0.7
			c-0.3,0.3-0.6,0.8-0.8,1.3s-0.3,1.2-0.3,2c0,0.6,0.1,1.2,0.2,1.7c0.1,0.5,0.4,1,0.7,1.4s0.7,0.7,1.2,0.9s1.1,0.3,1.8,0.3
			c0.4,0,0.8,0,1.2-0.1c0.3-0.1,0.7-0.1,0.9-0.2c0.3-0.1,0.5-0.2,0.7-0.2c0.2-0.1,0.4-0.2,0.6-0.2l0.8,2.4c-0.4,0.2-0.9,0.4-1.5,0.6
			S154.7,48.1,153.9,48.2z"/>
		<path class="st1" d="M169.1,47.9c-0.1-0.5-0.3-0.9-0.5-1.4s-0.3-1-0.5-1.5h-5.2c-0.2,0.5-0.3,1-0.5,1.5s-0.3,1-0.5,1.4h-3.1
			c0.5-1.4,1-2.8,1.4-4c0.5-1.2,0.9-2.4,1.3-3.4c0.4-1.1,0.9-2.1,1.3-3.1c0.4-1,0.9-1.9,1.3-2.8h2.8c0.4,0.9,0.9,1.9,1.3,2.8
			c0.4,1,0.9,2,1.3,3.1c0.4,1.1,0.9,2.2,1.3,3.4c0.5,1.2,0.9,2.5,1.4,4H169.1z M169.1,31.1c-0.1,0.2-0.2,0.4-0.3,0.6
			s-0.3,0.4-0.5,0.6c-0.2,0.2-0.4,0.4-0.7,0.5c-0.2,0.1-0.5,0.2-0.8,0.2c-0.2,0-0.4,0-0.6-0.1c-0.2-0.1-0.4-0.1-0.6-0.2
			c-0.2-0.1-0.4-0.2-0.6-0.2c-0.2-0.1-0.4-0.1-0.6-0.1c-0.3,0-0.5,0.1-0.6,0.3c-0.2,0.2-0.3,0.4-0.4,0.6l-1.4-0.9
			c0.1-0.2,0.2-0.4,0.3-0.6s0.3-0.4,0.5-0.6s0.4-0.4,0.7-0.5c0.2-0.1,0.5-0.2,0.8-0.2c0.2,0,0.4,0,0.6,0.1c0.2,0.1,0.4,0.1,0.6,0.2
			s0.4,0.2,0.6,0.2c0.2,0.1,0.4,0.1,0.6,0.1c0.3,0,0.5-0.1,0.6-0.3c0.2-0.2,0.3-0.4,0.4-0.6L169.1,31.1z M165.5,37.6
			c-0.1,0.2-0.2,0.5-0.3,0.8s-0.3,0.7-0.4,1.2c-0.2,0.4-0.3,0.9-0.6,1.4c-0.2,0.5-0.4,1.1-0.6,1.7h3.8c-0.2-0.6-0.4-1.1-0.6-1.7
			c-0.2-0.5-0.4-1-0.5-1.4c-0.2-0.4-0.3-0.8-0.5-1.2C165.7,38,165.5,37.8,165.5,37.6z"/>
		<path class="st1" d="M186.2,41.2c0,1.1-0.2,2.1-0.5,3s-0.8,1.6-1.4,2.2c-0.6,0.6-1.3,1-2.1,1.3s-1.7,0.4-2.6,0.4
			c-0.9,0-1.8-0.1-2.6-0.4c-0.8-0.3-1.5-0.7-2.1-1.3s-1.1-1.3-1.4-2.2c-0.3-0.9-0.5-1.9-0.5-3s0.2-2.1,0.5-3
			c0.4-0.9,0.8-1.6,1.5-2.2c0.6-0.6,1.3-1,2.1-1.3s1.6-0.4,2.5-0.4s1.8,0.1,2.6,0.4c0.8,0.3,1.5,0.7,2.1,1.3s1.1,1.3,1.4,2.2
			C186.1,39.1,186.2,40.1,186.2,41.2z M176,41.2c0,0.7,0.1,1.2,0.2,1.8c0.2,0.5,0.4,1,0.7,1.4s0.7,0.7,1.1,0.9
			c0.4,0.2,0.9,0.3,1.5,0.3s1-0.1,1.5-0.3c0.4-0.2,0.8-0.5,1.1-0.9s0.5-0.8,0.7-1.4c0.2-0.5,0.2-1.1,0.2-1.8s-0.1-1.2-0.2-1.8
			c-0.2-0.5-0.4-1-0.7-1.4s-0.7-0.7-1.1-0.9s-0.9-0.3-1.5-0.3s-1.1,0.1-1.5,0.3s-0.8,0.5-1.1,0.9s-0.5,0.8-0.7,1.4
			C176.1,40,176,40.6,176,41.2z"/>
	</g>
</g>
</svg>
