<?xml version="1.0" encoding="utf-8"?>
<!-- Generator: Adobe Illustrator 25.0.0, SVG Export Plug-In . SVG Version: 6.00 Build 0)  -->
<svg version="1.1" id="Camada_1" xmlns="http://www.w3.org/2000/svg" xmlns:xlink="http://www.w3.org/1999/xlink" x="0px" y="0px"
	 viewBox="0 0 185.5 59.6" style="enable-background:new 0 0 185.5 59.6;" xml:space="preserve">
<style type="text/css">
	.st0{fill:#FFB900;}
	.st1{fill:#072E53;}
</style>
<g>
	<g>
		<path class="st0" d="M47.5,18.5l-22.8-8c-0.3-0.1-0.6-0.1-0.9,0l-22.8,8C0.4,18.7,0,19.2,0,19.8s0.4,1.1,0.9,1.3l22.8,8.1
			c0.2,0.1,0.3,0.1,0.5,0.1c0.2,0,0.3,0,0.5-0.1l22.8-8.1c0.6-0.2,0.9-0.7,0.9-1.3C48.4,19.2,48,18.7,47.5,18.5z"/>
		<path class="st0" d="M45,37.4V25l-2.8,1v11.4c-0.9,0.5-1.4,1.4-1.4,2.5c0,1.1,0.6,2,1.4,2.5v7c0,0.8,0.6,1.4,1.4,1.4
			c0.8,0,1.4-0.6,1.4-1.4v-7c0.9-0.5,1.4-1.4,1.4-2.5C46.4,38.8,45.8,37.9,45,37.4z"/>
		<path class="st0" d="M24.2,32.2c-0.5,0-1-0.1-1.4-0.2L10,27.4v6.2c0,1.5,1.6,2.8,4.7,3.8c2.7,0.9,6.1,1.4,9.5,1.4s6.8-0.5,9.5-1.4
			c3.1-1,4.7-2.3,4.7-3.8v-6.2l-12.8,4.6C25.2,32.1,24.7,32.2,24.2,32.2z"/>
	</g>
</g>
<g>
	<g>
		<path class="st1" d="M55,20.6c0.4,0,0.7,0,0.9-0.1c0.2-0.1,0.4-0.2,0.6-0.3s0.2-0.2,0.3-0.4c0.1-0.2,0.1-0.3,0.1-0.5
			c0-0.4-0.2-0.7-0.5-1c-0.4-0.3-1-0.6-1.8-0.9c-0.4-0.1-0.8-0.3-1.1-0.5c-0.4-0.2-0.7-0.4-1-0.7c-0.3-0.3-0.5-0.6-0.7-1
			c-0.2-0.4-0.3-0.9-0.3-1.5c0-0.6,0.1-1.1,0.3-1.5c0.2-0.5,0.5-0.8,0.9-1.2c0.4-0.3,0.8-0.6,1.3-0.7S55,10,55.6,10
			c0.8,0,1.5,0.1,2,0.3c0.6,0.2,1,0.4,1.4,0.6l-0.8,2.2c-0.3-0.2-0.7-0.3-1.1-0.5c-0.4-0.1-0.9-0.2-1.4-0.2c-0.6,0-1.1,0.1-1.3,0.3
			c-0.3,0.2-0.4,0.5-0.4,0.8c0,0.2,0.1,0.4,0.2,0.6c0.1,0.2,0.2,0.3,0.4,0.4c0.2,0.1,0.4,0.2,0.6,0.3c0.2,0.1,0.5,0.2,0.8,0.3
			c0.6,0.2,1.1,0.5,1.6,0.7c0.4,0.2,0.8,0.5,1.1,0.8c0.3,0.3,0.5,0.7,0.7,1.1c0.1,0.4,0.2,0.9,0.2,1.5c0,1.2-0.4,2.1-1.1,2.7
			c-0.8,0.6-1.9,1-3.4,1c-0.5,0-1,0-1.4-0.1c-0.4-0.1-0.8-0.1-1.1-0.2c-0.3-0.1-0.6-0.2-0.8-0.3c-0.2-0.1-0.4-0.2-0.6-0.3l0.7-2.2
			c0.3,0.2,0.8,0.4,1.3,0.5C53.7,20.5,54.3,20.6,55,20.6z"/>
		<path class="st1" d="M61.6,22.7V10.3h7.8v2.3h-5.2v2.4h4.6v2.3h-4.6v3h5.6v2.3H61.6z"/>
		<path class="st1" d="M77.4,12.4c-1.2,0-2.1,0.4-2.6,1.1c-0.5,0.7-0.8,1.7-0.8,3c0,0.6,0.1,1.2,0.2,1.7c0.1,0.5,0.3,0.9,0.6,1.3
			c0.3,0.4,0.6,0.6,1,0.8c0.4,0.2,0.9,0.3,1.4,0.3c0.3,0,0.5,0,0.7,0c0.2,0,0.4,0,0.5-0.1v-4.3h2.6v6.1c-0.3,0.1-0.8,0.3-1.5,0.4
			c-0.7,0.1-1.5,0.2-2.6,0.2c-0.9,0-1.7-0.1-2.4-0.4c-0.7-0.3-1.3-0.7-1.8-1.3c-0.5-0.5-0.9-1.2-1.2-2c-0.3-0.8-0.4-1.7-0.4-2.7
			c0-1,0.2-2,0.5-2.8c0.3-0.8,0.7-1.5,1.2-2c0.5-0.6,1.1-1,1.9-1.3c0.7-0.3,1.5-0.4,2.3-0.4c0.5,0,1,0,1.5,0.1
			c0.4,0.1,0.8,0.2,1.1,0.3c0.3,0.1,0.6,0.2,0.8,0.3c0.2,0.1,0.4,0.2,0.4,0.3l-0.8,2.2c-0.4-0.2-0.8-0.4-1.2-0.5
			C78.5,12.5,78,12.4,77.4,12.4z"/>
		<path class="st1" d="M88.1,22.9c-0.8,0-1.5-0.1-2.1-0.4c-0.6-0.2-1.1-0.6-1.5-1c-0.4-0.4-0.7-1-0.9-1.6c-0.2-0.6-0.3-1.3-0.3-2
			v-7.7H86v7.5c0,0.5,0.1,0.9,0.2,1.3c0.1,0.4,0.3,0.6,0.4,0.9c0.2,0.2,0.4,0.4,0.7,0.5s0.6,0.1,0.9,0.1c0.6,0,1.2-0.2,1.5-0.6
			c0.4-0.4,0.6-1.1,0.6-2.1v-7.5h2.6V18c0,0.7-0.1,1.4-0.3,2c-0.2,0.6-0.5,1.1-0.9,1.6c-0.4,0.4-0.9,0.8-1.5,1
			C89.6,22.8,88.9,22.9,88.1,22.9z"/>
		<path class="st1" d="M103.2,22.7c-0.7-1.4-1.6-2.8-2.4-4.2c-0.9-1.4-1.8-2.7-2.8-3.9v8.1h-2.6V10.3h2.1c0.4,0.4,0.8,0.9,1.2,1.4
			c0.4,0.6,0.9,1.2,1.4,1.8c0.5,0.7,0.9,1.3,1.4,2c0.5,0.7,0.9,1.4,1.3,2v-7.3h2.6v12.4H103.2z"/>
		<path class="st1" d="M118.2,16.5c0,1.1-0.2,2-0.5,2.8c-0.3,0.8-0.8,1.5-1.3,2c-0.6,0.5-1.3,0.9-2.1,1.2c-0.8,0.3-1.8,0.4-2.8,0.4
			c-0.5,0-1,0-1.6-0.1c-0.6,0-1.2-0.1-1.8-0.3V10.5c0.6-0.1,1.2-0.2,1.9-0.2c0.7,0,1.2-0.1,1.7-0.1c1,0,1.9,0.1,2.7,0.4
			c0.8,0.2,1.5,0.6,2.1,1.1c0.6,0.5,1,1.2,1.3,2S118.2,15.4,118.2,16.5z M110.6,20.4c0.1,0,0.3,0,0.4,0c0.2,0,0.4,0,0.6,0
			c1.3,0,2.3-0.4,2.9-1.1c0.6-0.7,0.9-1.7,0.9-2.9c0-1.3-0.3-2.3-0.9-3c-0.6-0.7-1.6-1-2.9-1c-0.2,0-0.4,0-0.6,0c-0.2,0-0.4,0-0.5,0
			V20.4z"/>
		<path class="st1" d="M127.7,22.7c-0.1-0.4-0.3-0.9-0.4-1.3c-0.1-0.5-0.3-0.9-0.4-1.4h-4.5c-0.1,0.5-0.3,0.9-0.4,1.4
			c-0.1,0.5-0.3,0.9-0.4,1.3h-2.7c0.4-1.3,0.9-2.6,1.2-3.7c0.4-1.1,0.8-2.2,1.2-3.2c0.4-1,0.7-2,1.1-2.9c0.4-0.9,0.7-1.8,1.1-2.6
			h2.5c0.4,0.9,0.8,1.7,1.1,2.6c0.4,0.9,0.7,1.9,1.1,2.9c0.4,1,0.8,2.1,1.2,3.2c0.4,1.1,0.8,2.4,1.2,3.7H127.7z M124.6,13.1
			c-0.1,0.2-0.1,0.4-0.3,0.7c-0.1,0.3-0.2,0.7-0.4,1.1c-0.1,0.4-0.3,0.9-0.5,1.3c-0.2,0.5-0.4,1-0.5,1.5h3.3
			c-0.2-0.5-0.3-1.1-0.5-1.5c-0.2-0.5-0.3-0.9-0.5-1.3c-0.2-0.4-0.3-0.8-0.4-1.1C124.8,13.5,124.7,13.3,124.6,13.1z"/>
		<path class="st1" d="M57.5,33.9c-1.2,0-2.1,0.4-2.6,1.1c-0.5,0.7-0.8,1.7-0.8,3c0,0.6,0.1,1.2,0.2,1.7c0.1,0.5,0.3,0.9,0.6,1.3
			c0.3,0.4,0.6,0.6,1,0.8c0.4,0.2,0.9,0.3,1.4,0.3c0.3,0,0.5,0,0.7,0c0.2,0,0.4,0,0.5-0.1v-4.3h2.6v6.1c-0.3,0.1-0.8,0.3-1.5,0.4
			c-0.7,0.1-1.5,0.2-2.6,0.2c-0.9,0-1.7-0.1-2.4-0.4c-0.7-0.3-1.3-0.7-1.8-1.3c-0.5-0.5-0.9-1.2-1.2-2c-0.3-0.8-0.4-1.7-0.4-2.7
			c0-1,0.2-2,0.5-2.8c0.3-0.8,0.7-1.5,1.2-2c0.5-0.6,1.1-1,1.9-1.3c0.7-0.3,1.5-0.4,2.3-0.4c0.5,0,1,0,1.5,0.1
			c0.4,0.1,0.8,0.2,1.1,0.3c0.3,0.1,0.6,0.2,0.8,0.3c0.2,0.1,0.4,0.2,0.4,0.3l-0.8,2.2c-0.4-0.2-0.8-0.4-1.2-0.5
			C58.6,34,58.1,33.9,57.5,33.9z"/>
		<path class="st1" d="M67,31.6c1.7,0,3.1,0.3,4,1c0.9,0.7,1.4,1.7,1.4,3.1c0,0.9-0.2,1.6-0.6,2.1c-0.4,0.5-0.9,1-1.6,1.3
			c0.2,0.3,0.5,0.7,0.7,1.1c0.3,0.4,0.5,0.8,0.8,1.3c0.3,0.4,0.5,0.9,0.7,1.4c0.2,0.5,0.5,0.9,0.7,1.4h-2.9
			c-0.2-0.4-0.4-0.8-0.6-1.2c-0.2-0.4-0.4-0.8-0.7-1.2c-0.2-0.4-0.5-0.8-0.7-1.1c-0.2-0.4-0.4-0.7-0.7-1h-1.3v4.5h-2.6V32
			c0.6-0.1,1.2-0.2,1.8-0.3C66,31.7,66.6,31.6,67,31.6z M67.2,34c-0.2,0-0.4,0-0.5,0c-0.2,0-0.3,0-0.4,0v3.4H67c1,0,1.7-0.1,2.1-0.4
			c0.4-0.3,0.6-0.7,0.6-1.3c0-0.6-0.2-1-0.6-1.3C68.7,34.1,68,34,67.2,34z"/>
		<path class="st1" d="M83.1,44.2c-0.1-0.4-0.3-0.9-0.4-1.3c-0.1-0.5-0.3-0.9-0.4-1.4h-4.5c-0.1,0.5-0.3,0.9-0.4,1.4
			c-0.1,0.5-0.3,0.9-0.4,1.3h-2.7c0.4-1.3,0.9-2.6,1.2-3.7c0.4-1.1,0.8-2.2,1.2-3.2c0.4-1,0.7-2,1.1-2.9c0.4-0.9,0.7-1.8,1.1-2.6
			h2.5c0.4,0.9,0.8,1.7,1.1,2.6c0.4,0.9,0.7,1.9,1.1,2.9c0.4,1,0.8,2.1,1.2,3.2c0.4,1.1,0.8,2.4,1.2,3.7H83.1z M80,34.6
			c-0.1,0.2-0.1,0.4-0.3,0.7c-0.1,0.3-0.2,0.7-0.4,1.1c-0.1,0.4-0.3,0.9-0.5,1.3c-0.2,0.5-0.4,1-0.5,1.5h3.3
			c-0.2-0.5-0.3-1.1-0.5-1.5c-0.2-0.5-0.3-0.9-0.5-1.3c-0.1-0.4-0.3-0.8-0.4-1.1C80.1,35,80,34.8,80,34.6z"/>
		<path class="st1" d="M97.6,38c0,1.1-0.2,2-0.5,2.8c-0.3,0.8-0.8,1.5-1.3,2c-0.6,0.5-1.3,0.9-2.1,1.2c-0.8,0.3-1.8,0.4-2.8,0.4
			c-0.5,0-1,0-1.6-0.1c-0.6,0-1.2-0.1-1.8-0.3V31.9c0.6-0.1,1.2-0.2,1.9-0.2c0.7,0,1.2-0.1,1.7-0.1c1,0,1.9,0.1,2.7,0.4
			c0.8,0.2,1.5,0.6,2.1,1.1c0.6,0.5,1,1.2,1.3,2C97.4,35.9,97.6,36.8,97.6,38z M90,41.9c0.1,0,0.3,0,0.4,0c0.2,0,0.4,0,0.6,0
			c1.3,0,2.3-0.4,2.9-1.1c0.6-0.7,0.9-1.7,0.9-2.9c0-1.3-0.3-2.3-0.9-3c-0.6-0.7-1.6-1-2.9-1c-0.2,0-0.4,0-0.6,0c-0.2,0-0.4,0-0.5,0
			V41.9z"/>
		<path class="st1" d="M104.3,44.4c-0.8,0-1.5-0.1-2.1-0.4c-0.6-0.2-1.1-0.6-1.5-1c-0.4-0.4-0.7-1-0.9-1.6c-0.2-0.6-0.3-1.3-0.3-2
			v-7.7h2.6v7.5c0,0.5,0.1,0.9,0.2,1.3c0.1,0.4,0.3,0.6,0.4,0.9c0.2,0.2,0.4,0.4,0.7,0.5c0.3,0.1,0.6,0.1,0.9,0.1
			c0.6,0,1.2-0.2,1.5-0.6c0.4-0.4,0.6-1.1,0.6-2.1v-7.5h2.6v7.7c0,0.7-0.1,1.4-0.3,2c-0.2,0.6-0.5,1.1-0.9,1.6
			c-0.4,0.4-0.9,0.8-1.5,1C105.8,44.3,105.1,44.4,104.3,44.4z"/>
		<path class="st1" d="M119,44.2c-0.1-0.4-0.3-0.9-0.4-1.3c-0.1-0.5-0.3-0.9-0.4-1.4h-4.5c-0.1,0.5-0.3,0.9-0.4,1.4
			c-0.1,0.5-0.3,0.9-0.4,1.3h-2.7c0.4-1.3,0.9-2.6,1.2-3.7c0.4-1.1,0.8-2.2,1.2-3.2c0.4-1,0.7-2,1.1-2.9c0.4-0.9,0.7-1.8,1.1-2.6
			h2.5c0.4,0.9,0.8,1.7,1.1,2.6c0.4,0.9,0.7,1.9,1.1,2.9c0.4,1,0.8,2.1,1.2,3.2c0.4,1.1,0.8,2.4,1.2,3.7H119z M115.9,34.6
			c-0.1,0.2-0.1,0.4-0.3,0.7c-0.1,0.3-0.2,0.7-0.4,1.1c-0.1,0.4-0.3,0.9-0.5,1.3c-0.2,0.5-0.4,1-0.5,1.5h3.3
			c-0.2-0.5-0.3-1.1-0.5-1.5c-0.2-0.5-0.3-0.9-0.5-1.3c-0.2-0.4-0.3-0.8-0.4-1.1S116,34.8,115.9,34.6z"/>
		<path class="st1" d="M128.8,44.4c0,0.1-0.1,0.2-0.1,0.3c0,0.1-0.1,0.2-0.1,0.2c0.4,0.2,0.6,0.4,0.7,0.7c0.1,0.3,0.2,0.5,0.2,0.8
			c0,0.6-0.2,1-0.6,1.3c-0.4,0.3-1,0.4-1.7,0.4c-0.2,0-0.5,0-0.7-0.1c-0.2,0-0.5-0.1-0.7-0.2l0.3-1.6c0.1,0,0.2,0.1,0.4,0.1
			c0.2,0.1,0.4,0.1,0.6,0.1c0.2,0,0.3,0,0.4-0.1c0.1-0.1,0.2-0.2,0.2-0.3c0-0.1,0-0.3-0.2-0.4c-0.1-0.1-0.3-0.2-0.6-0.3l-0.2-0.1
			c0-0.1,0.1-0.3,0.2-0.5c0.1-0.2,0.1-0.4,0.2-0.5c-1.6-0.2-2.7-0.8-3.5-1.9c-0.8-1.1-1.2-2.6-1.2-4.4c0-1,0.2-1.9,0.5-2.7
			c0.3-0.8,0.7-1.5,1.2-2c0.5-0.6,1.1-1,1.9-1.3c0.7-0.3,1.5-0.4,2.4-0.4c0.5,0,0.9,0,1.3,0.1c0.4,0.1,0.8,0.2,1.1,0.3
			c0.3,0.1,0.6,0.2,0.8,0.3c0.2,0.1,0.3,0.2,0.4,0.3l-0.8,2.3c-0.4-0.2-0.8-0.4-1.2-0.5c-0.5-0.1-1-0.2-1.6-0.2
			c-0.4,0-0.8,0.1-1.2,0.2c-0.4,0.1-0.7,0.4-1,0.7c-0.3,0.3-0.5,0.7-0.7,1.2c-0.2,0.5-0.3,1.1-0.3,1.8c0,0.6,0.1,1.1,0.2,1.6
			c0.1,0.5,0.3,0.9,0.6,1.3c0.3,0.4,0.6,0.6,1,0.8c0.4,0.2,0.9,0.3,1.5,0.3c0.4,0,0.7,0,1-0.1c0.3,0,0.6-0.1,0.8-0.2
			c0.2-0.1,0.4-0.1,0.6-0.2c0.2-0.1,0.3-0.2,0.5-0.2l0.7,2.2c-0.3,0.2-0.8,0.4-1.3,0.6C130.2,44.2,129.5,44.4,128.8,44.4z"/>
		<path class="st1" d="M142,44.2c-0.1-0.4-0.3-0.9-0.4-1.3c-0.1-0.5-0.3-0.9-0.4-1.4h-4.5c-0.1,0.5-0.3,0.9-0.4,1.4
			c-0.1,0.5-0.3,0.9-0.4,1.3h-2.7c0.4-1.3,0.9-2.6,1.2-3.7c0.4-1.1,0.8-2.2,1.2-3.2c0.4-1,0.7-2,1.1-2.9c0.4-0.9,0.7-1.8,1.1-2.6
			h2.5c0.4,0.9,0.8,1.7,1.1,2.6c0.4,0.9,0.7,1.9,1.1,2.9c0.4,1,0.8,2.1,1.2,3.2c0.4,1.1,0.8,2.4,1.2,3.7H142z M142.1,28.6
			c-0.1,0.2-0.2,0.4-0.3,0.6c-0.1,0.2-0.3,0.4-0.4,0.6c-0.2,0.2-0.4,0.3-0.6,0.5c-0.2,0.1-0.4,0.2-0.7,0.2c-0.2,0-0.4,0-0.6-0.1
			c-0.2-0.1-0.3-0.1-0.5-0.2c-0.2-0.1-0.3-0.1-0.5-0.2c-0.2-0.1-0.3-0.1-0.5-0.1c-0.2,0-0.4,0.1-0.6,0.2c-0.1,0.2-0.3,0.3-0.4,0.5
			l-1.2-0.9c0.1-0.2,0.2-0.4,0.3-0.6c0.1-0.2,0.3-0.4,0.4-0.6c0.2-0.2,0.4-0.3,0.6-0.5c0.2-0.1,0.4-0.2,0.7-0.2c0.2,0,0.4,0,0.6,0.1
			c0.2,0.1,0.3,0.1,0.5,0.2c0.2,0.1,0.3,0.1,0.5,0.2c0.2,0.1,0.3,0.1,0.5,0.1c0.2,0,0.4-0.1,0.6-0.2c0.1-0.2,0.3-0.3,0.4-0.5
			L142.1,28.6z M138.9,34.6c-0.1,0.2-0.1,0.4-0.3,0.7s-0.2,0.7-0.4,1.1c-0.1,0.4-0.3,0.9-0.5,1.3c-0.2,0.5-0.4,1-0.5,1.5h3.3
			c-0.2-0.5-0.3-1.1-0.5-1.5c-0.2-0.5-0.3-0.9-0.5-1.3c-0.2-0.4-0.3-0.8-0.4-1.1S138.9,34.8,138.9,34.6z"/>
		<path class="st1" d="M156.9,38c0,1.1-0.1,2-0.4,2.8s-0.7,1.5-1.2,2c-0.5,0.5-1.1,1-1.8,1.2c-0.7,0.3-1.5,0.4-2.3,0.4
			c-0.8,0-1.5-0.1-2.2-0.4c-0.7-0.3-1.3-0.7-1.8-1.2c-0.5-0.5-0.9-1.2-1.2-2c-0.3-0.8-0.5-1.7-0.5-2.8c0-1.1,0.2-2,0.5-2.8
			c0.3-0.8,0.7-1.5,1.3-2c0.5-0.5,1.1-1,1.8-1.2c0.7-0.3,1.4-0.4,2.2-0.4c0.8,0,1.5,0.1,2.2,0.4s1.3,0.7,1.8,1.2
			c0.5,0.5,0.9,1.2,1.2,2C156.8,36,156.9,36.9,156.9,38z M148.1,38c0,0.6,0.1,1.2,0.2,1.6c0.1,0.5,0.3,0.9,0.6,1.3
			c0.3,0.4,0.6,0.6,1,0.8c0.4,0.2,0.8,0.3,1.3,0.3c0.5,0,0.9-0.1,1.3-0.3c0.4-0.2,0.7-0.5,1-0.8c0.3-0.4,0.5-0.8,0.6-1.3
			c0.1-0.5,0.2-1,0.2-1.6c0-0.6-0.1-1.2-0.2-1.7c-0.1-0.5-0.3-0.9-0.6-1.3c-0.3-0.4-0.6-0.6-1-0.8c-0.4-0.2-0.8-0.3-1.3-0.3
			c-0.5,0-0.9,0.1-1.3,0.3c-0.4,0.2-0.7,0.5-1,0.8c-0.3,0.4-0.5,0.8-0.6,1.3C148.1,36.8,148.1,37.4,148.1,38z"/>
		<path class="st1" d="M170.1,35c0,0.5-0.1,0.9-0.3,1.3c-0.2,0.4-0.4,0.8-0.7,1.2c-0.3,0.4-0.6,0.8-0.9,1.1c-0.3,0.4-0.7,0.7-1,1
			c-0.2,0.2-0.3,0.4-0.5,0.6c-0.2,0.2-0.4,0.4-0.6,0.6s-0.3,0.4-0.5,0.6c-0.1,0.2-0.2,0.3-0.3,0.5h5v2.2h-7.7c0-0.1,0-0.3,0-0.5
			s0-0.3,0-0.4c0-0.6,0.1-1.1,0.3-1.6c0.2-0.5,0.4-0.9,0.7-1.3c0.3-0.4,0.6-0.8,0.9-1.2c0.4-0.4,0.7-0.7,1-1.1
			c0.3-0.3,0.5-0.5,0.8-0.8c0.2-0.2,0.4-0.5,0.6-0.7s0.3-0.5,0.4-0.7c0.1-0.2,0.2-0.5,0.2-0.7c0-0.5-0.1-0.9-0.4-1.1
			c-0.3-0.2-0.6-0.3-1-0.3c-0.3,0-0.6,0.1-0.8,0.2c-0.3,0.1-0.5,0.2-0.7,0.4c-0.2,0.1-0.4,0.3-0.6,0.4c-0.2,0.1-0.3,0.2-0.4,0.3
			l-1.2-1.9c0.5-0.5,1.1-0.9,1.7-1.2c0.7-0.3,1.4-0.5,2.1-0.5c0.7,0,1.3,0.1,1.8,0.3c0.5,0.2,0.9,0.4,1.2,0.7
			c0.3,0.3,0.6,0.7,0.7,1.1C170,34,170.1,34.5,170.1,35z"/>
		<path class="st1" d="M174.9,42.8c0,0.5-0.2,0.9-0.5,1.2c-0.3,0.3-0.7,0.4-1.1,0.4c-0.4,0-0.8-0.1-1.1-0.4
			c-0.3-0.3-0.5-0.7-0.5-1.2s0.2-0.9,0.5-1.2c0.3-0.3,0.7-0.4,1.1-0.4c0.4,0,0.8,0.1,1.1,0.4C174.8,41.8,174.9,42.2,174.9,42.8z"/>
		<path class="st1" d="M184.4,37.9c0,2.1-0.4,3.7-1.1,4.8c-0.7,1.1-1.8,1.7-3.1,1.7c-1.3,0-2.3-0.6-3.1-1.7
			c-0.7-1.1-1.1-2.7-1.1-4.8c0-1,0.1-2,0.3-2.8c0.2-0.8,0.5-1.5,0.8-2c0.4-0.5,0.8-1,1.3-1.3c0.5-0.3,1.1-0.4,1.7-0.4
			c1.3,0,2.3,0.6,3.1,1.7C184,34.3,184.4,35.9,184.4,37.9z M181.8,37.9c0-0.6,0-1.2-0.1-1.7c-0.1-0.5-0.1-0.9-0.3-1.3
			c-0.1-0.4-0.3-0.7-0.5-0.9c-0.2-0.2-0.5-0.3-0.8-0.3c-0.3,0-0.6,0.1-0.8,0.3c-0.2,0.2-0.4,0.5-0.5,0.9c-0.1,0.4-0.2,0.8-0.3,1.3
			c-0.1,0.5-0.1,1.1-0.1,1.7c0,0.6,0,1.2,0.1,1.7c0.1,0.5,0.1,1,0.3,1.3c0.1,0.4,0.3,0.7,0.5,0.9c0.2,0.2,0.5,0.3,0.8,0.3
			c0.3,0,0.6-0.1,0.8-0.3c0.2-0.2,0.4-0.5,0.5-0.9c0.1-0.4,0.2-0.8,0.3-1.3C181.8,39.1,181.8,38.6,181.8,37.9z"/>
	</g>
</g>
</svg>
